<svg version="1.1" viewBox="0.0 0.0 1005.0 588.0" fill="none" stroke="none" stroke-linecap="square" stroke-miterlimit="10" width="1005" height="588" xmlns:xlink="http://www.w3.org/1999/xlink" xmlns="http://www.w3.org/2000/svg"><path fill="#ffffff" d="M0 0L1005.0 0L1005.0 588.0L0 588.0L0 0Z" fill-rule="nonzero"/><path stroke="#333333" stroke-width="1.0" stroke-linecap="butt" d="M136.5 458.5L975.5 458.5" fill-rule="nonzero"/><path fill="#eeeeee" d="M109.5 485.5L136.5 459.5L975.5 459.5L948.5 485.5Z" fill-rule="nonzero"/><path stroke="#cccccc" stroke-width="1.0" stroke-linecap="butt" d="M136.5 353.5L975.5 353.5" fill-rule="nonzero"/><path stroke="#cccccc" stroke-width="1.0" stroke-linecap="butt" d="M136.5 247.5L975.5 247.5" fill-rule="nonzero"/><path stroke="#cccccc" stroke-width="1.0" stroke-linecap="butt" d="M136.5 141.5L975.5 141.5" fill-rule="nonzero"/><path stroke="#cccccc" stroke-width="1.0" stroke-linecap="butt" d="M136.5 36.5L975.5 36.5" fill-rule="nonzero"/><path stroke="#000000" stroke-width="1.0" stroke-linecap="butt" stroke-opacity="0.0" d="M136.5 423.5L975.5 423.5" fill-rule="nonzero"/><path stroke="#000000" stroke-width="1.0" stroke-linecap="butt" stroke-opacity="0.0" d="M136.5 388.5L975.5 388.5" fill-rule="nonzero"/><path stroke="#000000" stroke-width="1.0" stroke-linecap="butt" stroke-opacity="0.0" d="M136.5 317.5L975.5 317.5" fill-rule="nonzero"/><path stroke="#000000" stroke-width="1.0" stroke-linecap="butt" stroke-opacity="0.0" d="M136.5 282.5L975.5 282.5" fill-rule="nonzero"/><path stroke="#000000" stroke-width="1.0" stroke-linecap="butt" stroke-opacity="0.0" d="M136.5 212.5L975.5 212.5" fill-rule="nonzero"/><path stroke="#000000" stroke-width="1.0" stroke-linecap="butt" stroke-opacity="0.0" d="M136.5 177.5L975.5 177.5" fill-rule="nonzero"/><path stroke="#000000" stroke-width="1.0" stroke-linecap="butt" stroke-opacity="0.0" d="M136.5 106.5L975.5 106.5" fill-rule="nonzero"/><path stroke="#000000" stroke-width="1.0" stroke-linecap="butt" stroke-opacity="0.0" d="M136.5 71.5L975.5 71.5" fill-rule="nonzero"/><path stroke="#000000" stroke-width="1.0" stroke-linecap="butt" d="M109.5 485.5L109.5 36.5" fill-rule="nonzero"/><clipPath id="id_0"><path d="M109.4 36.4L975.6 36.4L975.6 485.6L109.4 485.6L109.4 36.4Z" clip-rule="nonzero"/></clipPath><path fill="#00405e" clip-path="url(#id_0)" d="M257.0 459.0L257.0 459.0L235.0 481.0L235.0 481.0Z" fill-rule="nonzero"/><path fill="#3382a7" clip-path="url(#id_0)" d="M235.0 481.0L146.0 481.0L168.0 459.0L257.0 459.0Z" fill-rule="nonzero"/><path stroke="#000000" stroke-width="2.0" stroke-linecap="butt" stroke-opacity="0.0" clip-path="url(#id_0)" d="M235.0 481.0L146.0 481.0L146.0 481.0L235.0 481.0Z" fill-rule="nonzero"/><path fill="#006391" clip-path="url(#id_0)" d="M235.0 481.0L146.0 481.0L146.0 481.0L235.0 481.0Z" fill-rule="nonzero"/><path fill="#486d8f" clip-path="url(#id_0)" d="M394.0 317.0L394.0 459.0L372.0 481.0L372.0 339.0Z" fill-rule="nonzero"/><path fill="#8cb9e3" clip-path="url(#id_0)" d="M372.0 339.0L283.0 339.0L305.0 317.0L394.0 317.0Z" fill-rule="nonzero"/><path stroke="#000000" stroke-width="2.0" stroke-linecap="butt" clip-path="url(#id_0)" d="M372.0 481.0L283.0 481.0L283.0 339.0L372.0 339.0Z" fill-rule="nonzero"/><path fill="#6fa8dc" clip-path="url(#id_0)" d="M372.0 481.0L283.0 481.0L283.0 339.0L372.0 339.0Z" fill-rule="nonzero"/><path fill="#756d8b" clip-path="url(#id_0)" d="M530.0 36.0L530.0 459.0L508.0 481.0L508.0 58.0Z" fill-rule="nonzero"/><path fill="#c3b9de" clip-path="url(#id_0)" d="M508.0 58.0L419.0 58.0L441.0 36.0L530.0 36.0Z" fill-rule="nonzero"/><path stroke="#000000" stroke-width="2.0" stroke-linecap="butt" clip-path="url(#id_0)" d="M508.0 481.0L419.0 481.0L419.0 58.0L508.0 58.0Z" fill-rule="nonzero"/><path fill="#b4a7d6" clip-path="url(#id_0)" d="M508.0 481.0L419.0 481.0L419.0 58.0L508.0 58.0Z" fill-rule="nonzero"/><path stroke="#000000" stroke-width="1.0" stroke-linecap="butt" d="M97.5 458.5L109.5 458.5" fill-rule="nonzero"/><path stroke="#000000" stroke-width="1.0" stroke-linecap="butt" d="M97.5 353.5L109.5 353.5" fill-rule="nonzero"/><path stroke="#000000" stroke-width="1.0" stroke-linecap="butt" d="M97.5 247.5L109.5 247.5" fill-rule="nonzero"/><path stroke="#000000" stroke-width="1.0" stroke-linecap="butt" d="M97.5 141.5L109.5 141.5" fill-rule="nonzero"/><path stroke="#000000" stroke-width="1.0" stroke-linecap="butt" d="M97.5 36.5L109.5 36.5" fill-rule="nonzero"/><path stroke="#006391" stroke-width="3.0" stroke-linejoin="round" stroke-linecap="round" d="M192.26562 481.1625Q192.26562 482.63126 191.65625 483.4125Q191.04688 484.19376 189.875 484.19376Q188.70312 484.19376 188.09375 483.42813Q187.48438 482.6625 187.46875 481.24063L187.46875 479.92813Q187.46875 478.42813 188.07812 477.6625Q188.70312 476.89688 189.85938 476.89688Q191.03125 476.89688 191.64062 477.6625Q192.25 478.42813 192.26562 479.85L192.26562 481.1625ZM190.85938 479.725Q190.85938 478.83438 190.60938 478.44376Q190.375 478.0375 189.85938 478.0375Q189.35938 478.0375 189.125 478.42813Q188.89062 478.80313 188.875 479.61563L188.875 481.35Q188.875 482.20938 189.10938 482.63126Q189.34375 483.05313 189.875 483.05313Q190.39062 483.05313 190.60938 482.6625Q190.84375 482.25626 190.85938 481.4125L190.85938 479.725Z" fill-rule="nonzero"/><path fill="#ffffff" d="M192.26562 481.1625Q192.26562 482.63126 191.65625 483.4125Q191.04688 484.19376 189.875 484.19376Q188.70312 484.19376 188.09375 483.42813Q187.48438 482.6625 187.46875 481.24063L187.46875 479.92813Q187.46875 478.42813 188.07812 477.6625Q188.70312 476.89688 189.85938 476.89688Q191.03125 476.89688 191.64062 477.6625Q192.25 478.42813 192.26562 479.85L192.26562 481.1625ZM190.85938 479.725Q190.85938 478.83438 190.60938 478.44376Q190.375 478.0375 189.85938 478.0375Q189.35938 478.0375 189.125 478.42813Q188.89062 478.80313 188.875 479.61563L188.875 481.35Q188.875 482.20938 189.10938 482.63126Q189.34375 483.05313 189.875 483.05313Q190.39062 483.05313 190.60938 482.6625Q190.84375 482.25626 190.85938 481.4125L190.85938 479.725Z" fill-rule="nonzero"/><path stroke="#6fa8dc" stroke-width="3.0" stroke-linejoin="round" stroke-linecap="round" d="M301.95312 408.35025L303.3125 408.35025Q304.28125 408.35025 304.73438 407.8815Q305.20312 407.39713 305.20312 406.58463Q305.20312 405.819 304.73438 405.39713Q304.28125 404.95963 303.46875 404.95963Q302.75 404.95963 302.25 405.36588Q301.76562 405.7565 301.76562 406.39713L299.21875 406.39713Q299.21875 405.39713 299.75 404.60025Q300.29688 403.80338 301.26562 403.36588Q302.25 402.91275 303.40625 402.91275Q305.4375 402.91275 306.59375 403.8815Q307.75 404.85025 307.75 406.55338Q307.75 407.42838 307.20312 408.17838Q306.67188 408.91275 305.79688 409.30338Q306.89062 409.694 307.42188 410.47525Q307.95312 411.24088 307.95312 412.28775Q307.95312 414.0065 306.70312 415.03775Q305.46875 416.05338 303.40625 416.05338Q301.5 416.05338 300.28125 415.05338Q299.0625 414.03775 299.0625 412.3815L301.60938 412.3815Q301.60938 413.10025 302.14062 413.55338Q302.6875 414.0065 303.46875 414.0065Q304.375 414.0065 304.89062 413.53775Q305.40625 413.05338 305.40625 412.2565Q305.40625 410.35025 303.29688 410.35025L301.95312 410.35025L301.95312 408.35025ZM311.95312 408.35025L313.3125 408.35025Q314.28125 408.35025 314.73438 407.8815Q315.20312 407.39713 315.20312 406.58463Q315.20312 405.819 314.73438 405.39713Q314.28125 404.95963 313.46875 404.95963Q312.75 404.95963 312.25 405.36588Q311.76562 405.7565 311.76562 406.39713L309.21875 406.39713Q309.21875 405.39713 309.75 404.60025Q310.29688 403.80338 311.26562 403.36588Q312.25 402.91275 313.40625 402.91275Q315.4375 402.91275 316.59375 403.8815Q317.75 404.85025 317.75 406.55338Q317.75 407.42838 317.20312 408.17838Q316.67188 408.91275 315.79688 409.30338Q316.89062 409.694 317.42188 410.47525Q317.95312 411.24088 317.95312 412.28775Q317.95312 414.0065 316.70312 415.03775Q315.46875 416.05338 313.40625 416.05338Q311.5 416.05338 310.28125 415.05338Q309.0625 414.03775 309.0625 412.3815L311.60938 412.3815Q311.60938 413.10025 312.14062 413.55338Q312.6875 414.0065 313.46875 414.0065Q314.375 414.0065 314.89062 413.53775Q315.40625 413.05338 315.40625 412.2565Q315.40625 410.35025 313.29688 410.35025L311.95312 410.35025L311.95312 408.35025ZM320.14062 419.08463L318.8125 418.39713L319.125 417.819Q319.71875 416.7565 319.73438 415.694L319.73438 413.72525L321.875 413.72525L321.85938 415.47525Q321.85938 416.45963 321.375 417.444Q320.89062 418.444 320.14062 419.08463ZM323.75 409.58463L324.48438 403.08463L331.65625 403.08463L331.65625 405.20963L326.5625 405.20963L326.25 407.95963Q327.15625 407.47525 328.17188 407.47525Q330.0 407.47525 331.03125 408.61588Q332.07812 409.74088 332.07812 411.77213Q332.07812 413.02213 331.54688 414.0065Q331.03125 414.97525 330.04688 415.52213Q329.07812 416.05338 327.75 416.05338Q326.59375 416.05338 325.59375 415.58463Q324.60938 415.11588 324.03125 414.27213Q323.45312 413.41275 323.42188 412.319L325.9375 412.319Q326.01562 413.11588 326.48438 413.569Q326.96875 414.0065 327.75 414.0065Q328.60938 414.0065 329.07812 413.39713Q329.54688 412.77213 329.54688 411.6315Q329.54688 410.55338 329.0 409.97525Q328.46875 409.3815 327.48438 409.3815Q326.57812 409.3815 326.01562 409.86588L325.76562 410.08463L323.75 409.58463ZM341.98438 410.58463Q341.98438 413.24088 340.875 414.64713Q339.78125 416.05338 337.67188 416.05338Q335.57812 416.05338 334.46875 414.67838Q333.35938 413.30338 333.32812 410.72525L333.32812 408.36588Q333.32812 405.67838 334.4375 404.30338Q335.5625 402.91275 337.65625 402.91275Q339.75 402.91275 340.84375 404.28775Q341.95312 405.66275 341.98438 408.24088L341.98438 410.58463ZM339.4375 408.0065Q339.4375 406.41275 339.0 405.694Q338.57812 404.95963 337.65625 404.95963Q336.75 404.95963 336.32812 405.66275Q335.90625 406.35025 335.875 407.819L335.875 410.92838Q335.875 412.49088 336.29688 413.2565Q336.73438 414.0065 337.67188 414.0065Q338.59375 414.0065 339.0 413.28775Q339.42188 412.55338 339.4375 411.05338L339.4375 408.0065ZM343.32812 405.53775Q343.32812 404.36588 344.09375 403.6315Q344.85938 402.89713 346.10938 402.89713Q347.35938 402.89713 348.125 403.6315Q348.89062 404.35025 348.89062 405.58463L348.89062 406.22525Q348.89062 407.41275 348.125 408.1315Q347.35938 408.85025 346.125 408.85025Q344.875 408.85025 344.09375 408.1315Q343.32812 407.39713 343.32812 406.16275L343.32812 405.53775ZM345.01562 406.22525Q345.01562 406.7565 345.3125 407.08463Q345.625 407.39713 346.10938 407.39713Q346.60938 407.39713 346.89062 407.069Q347.1875 406.74088 347.1875 406.194L347.1875 405.53775Q347.1875 405.02213 346.89062 404.694Q346.60938 404.36588 346.10938 404.36588Q345.625 404.36588 345.3125 404.694Q345.01562 405.0065 345.01562 405.58463L345.01562 406.22525ZM349.45312 412.74088Q349.45312 411.55338 350.21875 410.83463Q351.0 410.10025 352.23438 410.10025Q353.48438 410.10025 354.25 410.819Q355.01562 411.53775 355.01562 412.80338L355.01562 413.42838Q355.01562 414.60025 354.25 415.33463Q353.5 416.05338 352.25 416.05338Q350.98438 416.05338 350.21875 415.33463Q349.45312 414.60025 349.45312 413.39713L349.45312 412.74088ZM351.14062 413.42838Q351.14062 413.91275 351.45312 414.2565Q351.76562 414.60025 352.25 414.60025Q353.3125 414.60025 353.3125 413.41275L353.3125 412.74088Q353.3125 412.20963 353.01562 411.89713Q352.71875 411.569 352.21875 411.569Q351.73438 411.569 351.4375 411.89713Q351.14062 412.20963 351.14062 412.77213L351.14062 413.42838ZM346.625 414.92838L345.39062 414.2565L351.625 404.2565L352.875 404.92838L346.625 414.92838Z" fill-rule="nonzero"/><path fill="#ffffff" d="M301.95312 408.35025L303.3125 408.35025Q304.28125 408.35025 304.73438 407.8815Q305.20312 407.39713 305.20312 406.58463Q305.20312 405.819 304.73438 405.39713Q304.28125 404.95963 303.46875 404.95963Q302.75 404.95963 302.25 405.36588Q301.76562 405.7565 301.76562 406.39713L299.21875 406.39713Q299.21875 405.39713 299.75 404.60025Q300.29688 403.80338 301.26562 403.36588Q302.25 402.91275 303.40625 402.91275Q305.4375 402.91275 306.59375 403.8815Q307.75 404.85025 307.75 406.55338Q307.75 407.42838 307.20312 408.17838Q306.67188 408.91275 305.79688 409.30338Q306.89062 409.694 307.42188 410.47525Q307.95312 411.24088 307.95312 412.28775Q307.95312 414.0065 306.70312 415.03775Q305.46875 416.05338 303.40625 416.05338Q301.5 416.05338 300.28125 415.05338Q299.0625 414.03775 299.0625 412.3815L301.60938 412.3815Q301.60938 413.10025 302.14062 413.55338Q302.6875 414.0065 303.46875 414.0065Q304.375 414.0065 304.89062 413.53775Q305.40625 413.05338 305.40625 412.2565Q305.40625 410.35025 303.29688 410.35025L301.95312 410.35025L301.95312 408.35025ZM311.95312 408.35025L313.3125 408.35025Q314.28125 408.35025 314.73438 407.8815Q315.20312 407.39713 315.20312 406.58463Q315.20312 405.819 314.73438 405.39713Q314.28125 404.95963 313.46875 404.95963Q312.75 404.95963 312.25 405.36588Q311.76562 405.7565 311.76562 406.39713L309.21875 406.39713Q309.21875 405.39713 309.75 404.60025Q310.29688 403.80338 311.26562 403.36588Q312.25 402.91275 313.40625 402.91275Q315.4375 402.91275 316.59375 403.8815Q317.75 404.85025 317.75 406.55338Q317.75 407.42838 317.20312 408.17838Q316.67188 408.91275 315.79688 409.30338Q316.89062 409.694 317.42188 410.47525Q317.95312 411.24088 317.95312 412.28775Q317.95312 414.0065 316.70312 415.03775Q315.46875 416.05338 313.40625 416.05338Q311.5 416.05338 310.28125 415.05338Q309.0625 414.03775 309.0625 412.3815L311.60938 412.3815Q311.60938 413.10025 312.14062 413.55338Q312.6875 414.0065 313.46875 414.0065Q314.375 414.0065 314.89062 413.53775Q315.40625 413.05338 315.40625 412.2565Q315.40625 410.35025 313.29688 410.35025L311.95312 410.35025L311.95312 408.35025ZM320.14062 419.08463L318.8125 418.39713L319.125 417.819Q319.71875 416.7565 319.73438 415.694L319.73438 413.72525L321.875 413.72525L321.85938 415.47525Q321.85938 416.45963 321.375 417.444Q320.89062 418.444 320.14062 419.08463ZM323.75 409.58463L324.48438 403.08463L331.65625 403.08463L331.65625 405.20963L326.5625 405.20963L326.25 407.95963Q327.15625 407.47525 328.17188 407.47525Q330.0 407.47525 331.03125 408.61588Q332.07812 409.74088 332.07812 411.77213Q332.07812 413.02213 331.54688 414.0065Q331.03125 414.97525 330.04688 415.52213Q329.07812 416.05338 327.75 416.05338Q326.59375 416.05338 325.59375 415.58463Q324.60938 415.11588 324.03125 414.27213Q323.45312 413.41275 323.42188 412.319L325.9375 412.319Q326.01562 413.11588 326.48438 413.569Q326.96875 414.0065 327.75 414.0065Q328.60938 414.0065 329.07812 413.39713Q329.54688 412.77213 329.54688 411.6315Q329.54688 410.55338 329.0 409.97525Q328.46875 409.3815 327.48438 409.3815Q326.57812 409.3815 326.01562 409.86588L325.76562 410.08463L323.75 409.58463ZM341.98438 410.58463Q341.98438 413.24088 340.875 414.64713Q339.78125 416.05338 337.67188 416.05338Q335.57812 416.05338 334.46875 414.67838Q333.35938 413.30338 333.32812 410.72525L333.32812 408.36588Q333.32812 405.67838 334.4375 404.30338Q335.5625 402.91275 337.65625 402.91275Q339.75 402.91275 340.84375 404.28775Q341.95312 405.66275 341.98438 408.24088L341.98438 410.58463ZM339.4375 408.0065Q339.4375 406.41275 339.0 405.694Q338.57812 404.95963 337.65625 404.95963Q336.75 404.95963 336.32812 405.66275Q335.90625 406.35025 335.875 407.819L335.875 410.92838Q335.875 412.49088 336.29688 413.2565Q336.73438 414.0065 337.67188 414.0065Q338.59375 414.0065 339.0 413.28775Q339.42188 412.55338 339.4375 411.05338L339.4375 408.0065ZM343.32812 405.53775Q343.32812 404.36588 344.09375 403.6315Q344.85938 402.89713 346.10938 402.89713Q347.35938 402.89713 348.125 403.6315Q348.89062 404.35025 348.89062 405.58463L348.89062 406.22525Q348.89062 407.41275 348.125 408.1315Q347.35938 408.85025 346.125 408.85025Q344.875 408.85025 344.09375 408.1315Q343.32812 407.39713 343.32812 406.16275L343.32812 405.53775ZM345.01562 406.22525Q345.01562 406.7565 345.3125 407.08463Q345.625 407.39713 346.10938 407.39713Q346.60938 407.39713 346.89062 407.069Q347.1875 406.74088 347.1875 406.194L347.1875 405.53775Q347.1875 405.02213 346.89062 404.694Q346.60938 404.36588 346.10938 404.36588Q345.625 404.36588 345.3125 404.694Q345.01562 405.0065 345.01562 405.58463L345.01562 406.22525ZM349.45312 412.74088Q349.45312 411.55338 350.21875 410.83463Q351.0 410.10025 352.23438 410.10025Q353.48438 410.10025 354.25 410.819Q355.01562 411.53775 355.01562 412.80338L355.01562 413.42838Q355.01562 414.60025 354.25 415.33463Q353.5 416.05338 352.25 416.05338Q350.98438 416.05338 350.21875 415.33463Q349.45312 414.60025 349.45312 413.39713L349.45312 412.74088ZM351.14062 413.42838Q351.14062 413.91275 351.45312 414.2565Q351.76562 414.60025 352.25 414.60025Q353.3125 414.60025 353.3125 413.41275L353.3125 412.74088Q353.3125 412.20963 353.01562 411.89713Q352.71875 411.569 352.21875 411.569Q351.73438 411.569 351.4375 411.89713Q351.14062 412.20963 351.14062 412.77213L351.14062 413.42838ZM346.625 414.92838L345.39062 414.2565L351.625 404.2565L352.875 404.92838L346.625 414.92838Z" fill-rule="nonzero"/><path stroke="#b4a7d6" stroke-width="3.0" stroke-linejoin="round" stroke-linecap="round" d="M436.54688 275.5L434.0 275.5L434.0 265.70312L430.96875 266.65625L430.96875 264.57812L436.26562 262.6875L436.54688 262.6875L436.54688 275.5ZM448.98438 270.20312Q448.98438 272.85938 447.875 274.26562Q446.78125 275.67188 444.67188 275.67188Q442.57812 275.67188 441.46875 274.29688Q440.35938 272.92188 440.32812 270.34375L440.32812 267.98438Q440.32812 265.29688 441.4375 263.92188Q442.5625 262.53125 444.65625 262.53125Q446.75 262.53125 447.84375 263.90625Q448.95312 265.28125 448.98438 267.85938L448.98438 270.20312ZM446.4375 267.625Q446.4375 266.03125 446.0 265.3125Q445.57812 264.57812 444.65625 264.57812Q443.75 264.57812 443.32812 265.28125Q442.90625 265.96875 442.875 267.4375L442.875 270.54688Q442.875 272.10938 443.29688 272.875Q443.73438 273.625 444.67188 273.625Q445.59375 273.625 446.0 272.90625Q446.42188 272.17188 446.4375 270.67188L446.4375 267.625ZM458.98438 270.20312Q458.98438 272.85938 457.875 274.26562Q456.78125 275.67188 454.67188 275.67188Q452.57812 275.67188 451.46875 274.29688Q450.35938 272.92188 450.32812 270.34375L450.32812 267.98438Q450.32812 265.29688 451.4375 263.92188Q452.5625 262.53125 454.65625 262.53125Q456.75 262.53125 457.84375 263.90625Q458.95312 265.28125 458.98438 267.85938L458.98438 270.20312ZM456.4375 267.625Q456.4375 266.03125 456.0 265.3125Q455.57812 264.57812 454.65625 264.57812Q453.75 264.57812 453.32812 265.28125Q452.90625 265.96875 452.875 267.4375L452.875 270.54688Q452.875 272.10938 453.29688 272.875Q453.73438 273.625 454.67188 273.625Q455.59375 273.625 456.0 272.90625Q456.42188 272.17188 456.4375 270.67188L456.4375 267.625ZM461.14062 278.70312L459.8125 278.01562L460.125 277.4375Q460.71875 276.375 460.73438 275.3125L460.73438 273.34375L462.875 273.34375L462.85938 275.09375Q462.85938 276.07812 462.375 277.0625Q461.89062 278.0625 461.14062 278.70312ZM472.98438 270.20312Q472.98438 272.85938 471.875 274.26562Q470.78125 275.67188 468.67188 275.67188Q466.57812 275.67188 465.46875 274.29688Q464.35938 272.92188 464.32812 270.34375L464.32812 267.98438Q464.32812 265.29688 465.4375 263.92188Q466.5625 262.53125 468.65625 262.53125Q470.75 262.53125 471.84375 263.90625Q472.95312 265.28125 472.98438 267.85938L472.98438 270.20312ZM470.4375 267.625Q470.4375 266.03125 470.0 265.3125Q469.57812 264.57812 468.65625 264.57812Q467.75 264.57812 467.32812 265.28125Q466.90625 265.96875 466.875 267.4375L466.875 270.54688Q466.875 272.10938 467.29688 272.875Q467.73438 273.625 468.67188 273.625Q469.59375 273.625 470.0 272.90625Q470.42188 272.17188 470.4375 270.67188L470.4375 267.625ZM482.98438 270.20312Q482.98438 272.85938 481.875 274.26562Q480.78125 275.67188 478.67188 275.67188Q476.57812 275.67188 475.46875 274.29688Q474.35938 272.92188 474.32812 270.34375L474.32812 267.98438Q474.32812 265.29688 475.4375 263.92188Q476.5625 262.53125 478.65625 262.53125Q480.75 262.53125 481.84375 263.90625Q482.95312 265.28125 482.98438 267.85938L482.98438 270.20312ZM480.4375 267.625Q480.4375 266.03125 480.0 265.3125Q479.57812 264.57812 478.65625 264.57812Q477.75 264.57812 477.32812 265.28125Q476.90625 265.96875 476.875 267.4375L476.875 270.54688Q476.875 272.10938 477.29688 272.875Q477.73438 273.625 478.67188 273.625Q479.59375 273.625 480.0 272.90625Q480.42188 272.17188 480.4375 270.67188L480.4375 267.625ZM484.32812 265.15625Q484.32812 263.98438 485.09375 263.25Q485.85938 262.51562 487.10938 262.51562Q488.35938 262.51562 489.125 263.25Q489.89062 263.96875 489.89062 265.20312L489.89062 265.84375Q489.89062 267.03125 489.125 267.75Q488.35938 268.46875 487.125 268.46875Q485.875 268.46875 485.09375 267.75Q484.32812 267.01562 484.32812 265.78125L484.32812 265.15625ZM486.01562 265.84375Q486.01562 266.375 486.3125 266.70312Q486.625 267.01562 487.10938 267.01562Q487.60938 267.01562 487.89062 266.6875Q488.1875 266.35938 488.1875 265.8125L488.1875 265.15625Q488.1875 264.64062 487.89062 264.3125Q487.60938 263.98438 487.10938 263.98438Q486.625 263.98438 486.3125 264.3125Q486.01562 264.625 486.01562 265.20312L486.01562 265.84375ZM490.45312 272.35938Q490.45312 271.17188 491.21875 270.45312Q492.0 269.71875 493.23438 269.71875Q494.48438 269.71875 495.25 270.4375Q496.01562 271.15625 496.01562 272.42188L496.01562 273.04688Q496.01562 274.21875 495.25 274.95312Q494.5 275.67188 493.25 275.67188Q491.98438 275.67188 491.21875 274.95312Q490.45312 274.21875 490.45312 273.01562L490.45312 272.35938ZM492.14062 273.04688Q492.14062 273.53125 492.45312 273.875Q492.76562 274.21875 493.25 274.21875Q494.3125 274.21875 494.3125 273.03125L494.3125 272.35938Q494.3125 271.82812 494.01562 271.51562Q493.71875 271.1875 493.21875 271.1875Q492.73438 271.1875 492.4375 271.51562Q492.14062 271.82812 492.14062 272.39062L492.14062 273.04688ZM487.625 274.54688L486.39062 273.875L492.625 263.875L493.875 264.54688L487.625 274.54688Z" fill-rule="nonzero"/><path fill="#ffffff" d="M436.54688 275.5L434.0 275.5L434.0 265.70312L430.96875 266.65625L430.96875 264.57812L436.26562 262.6875L436.54688 262.6875L436.54688 275.5ZM448.98438 270.20312Q448.98438 272.85938 447.875 274.26562Q446.78125 275.67188 444.67188 275.67188Q442.57812 275.67188 441.46875 274.29688Q440.35938 272.92188 440.32812 270.34375L440.32812 267.98438Q440.32812 265.29688 441.4375 263.92188Q442.5625 262.53125 444.65625 262.53125Q446.75 262.53125 447.84375 263.90625Q448.95312 265.28125 448.98438 267.85938L448.98438 270.20312ZM446.4375 267.625Q446.4375 266.03125 446.0 265.3125Q445.57812 264.57812 444.65625 264.57812Q443.75 264.57812 443.32812 265.28125Q442.90625 265.96875 442.875 267.4375L442.875 270.54688Q442.875 272.10938 443.29688 272.875Q443.73438 273.625 444.67188 273.625Q445.59375 273.625 446.0 272.90625Q446.42188 272.17188 446.4375 270.67188L446.4375 267.625ZM458.98438 270.20312Q458.98438 272.85938 457.875 274.26562Q456.78125 275.67188 454.67188 275.67188Q452.57812 275.67188 451.46875 274.29688Q450.35938 272.92188 450.32812 270.34375L450.32812 267.98438Q450.32812 265.29688 451.4375 263.92188Q452.5625 262.53125 454.65625 262.53125Q456.75 262.53125 457.84375 263.90625Q458.95312 265.28125 458.98438 267.85938L458.98438 270.20312ZM456.4375 267.625Q456.4375 266.03125 456.0 265.3125Q455.57812 264.57812 454.65625 264.57812Q453.75 264.57812 453.32812 265.28125Q452.90625 265.96875 452.875 267.4375L452.875 270.54688Q452.875 272.10938 453.29688 272.875Q453.73438 273.625 454.67188 273.625Q455.59375 273.625 456.0 272.90625Q456.42188 272.17188 456.4375 270.67188L456.4375 267.625ZM461.14062 278.70312L459.8125 278.01562L460.125 277.4375Q460.71875 276.375 460.73438 275.3125L460.73438 273.34375L462.875 273.34375L462.85938 275.09375Q462.85938 276.07812 462.375 277.0625Q461.89062 278.0625 461.14062 278.70312ZM472.98438 270.20312Q472.98438 272.85938 471.875 274.26562Q470.78125 275.67188 468.67188 275.67188Q466.57812 275.67188 465.46875 274.29688Q464.35938 272.92188 464.32812 270.34375L464.32812 267.98438Q464.32812 265.29688 465.4375 263.92188Q466.5625 262.53125 468.65625 262.53125Q470.75 262.53125 471.84375 263.90625Q472.95312 265.28125 472.98438 267.85938L472.98438 270.20312ZM470.4375 267.625Q470.4375 266.03125 470.0 265.3125Q469.57812 264.57812 468.65625 264.57812Q467.75 264.57812 467.32812 265.28125Q466.90625 265.96875 466.875 267.4375L466.875 270.54688Q466.875 272.10938 467.29688 272.875Q467.73438 273.625 468.67188 273.625Q469.59375 273.625 470.0 272.90625Q470.42188 272.17188 470.4375 270.67188L470.4375 267.625ZM482.98438 270.20312Q482.98438 272.85938 481.875 274.26562Q480.78125 275.67188 478.67188 275.67188Q476.57812 275.67188 475.46875 274.29688Q474.35938 272.92188 474.32812 270.34375L474.32812 267.98438Q474.32812 265.29688 475.4375 263.92188Q476.5625 262.53125 478.65625 262.53125Q480.75 262.53125 481.84375 263.90625Q482.95312 265.28125 482.98438 267.85938L482.98438 270.20312ZM480.4375 267.625Q480.4375 266.03125 480.0 265.3125Q479.57812 264.57812 478.65625 264.57812Q477.75 264.57812 477.32812 265.28125Q476.90625 265.96875 476.875 267.4375L476.875 270.54688Q476.875 272.10938 477.29688 272.875Q477.73438 273.625 478.67188 273.625Q479.59375 273.625 480.0 272.90625Q480.42188 272.17188 480.4375 270.67188L480.4375 267.625ZM484.32812 265.15625Q484.32812 263.98438 485.09375 263.25Q485.85938 262.51562 487.10938 262.51562Q488.35938 262.51562 489.125 263.25Q489.89062 263.96875 489.89062 265.20312L489.89062 265.84375Q489.89062 267.03125 489.125 267.75Q488.35938 268.46875 487.125 268.46875Q485.875 268.46875 485.09375 267.75Q484.32812 267.01562 484.32812 265.78125L484.32812 265.15625ZM486.01562 265.84375Q486.01562 266.375 486.3125 266.70312Q486.625 267.01562 487.10938 267.01562Q487.60938 267.01562 487.89062 266.6875Q488.1875 266.35938 488.1875 265.8125L488.1875 265.15625Q488.1875 264.64062 487.89062 264.3125Q487.60938 263.98438 487.10938 263.98438Q486.625 263.98438 486.3125 264.3125Q486.01562 264.625 486.01562 265.20312L486.01562 265.84375ZM490.45312 272.35938Q490.45312 271.17188 491.21875 270.45312Q492.0 269.71875 493.23438 269.71875Q494.48438 269.71875 495.25 270.4375Q496.01562 271.15625 496.01562 272.42188L496.01562 273.04688Q496.01562 274.21875 495.25 274.95312Q494.5 275.67188 493.25 275.67188Q491.98438 275.67188 491.21875 274.95312Q490.45312 274.21875 490.45312 273.01562L490.45312 272.35938ZM492.14062 273.04688Q492.14062 273.53125 492.45312 273.875Q492.76562 274.21875 493.25 274.21875Q494.3125 274.21875 494.3125 273.03125L494.3125 272.35938Q494.3125 271.82812 494.01562 271.51562Q493.71875 271.1875 493.21875 271.1875Q492.73438 271.1875 492.4375 271.51562Q492.14062 271.82812 492.14062 272.39062L492.14062 273.04688ZM487.625 274.54688L486.39062 273.875L492.625 263.875L493.875 264.54688L487.625 274.54688Z" fill-rule="nonzero"/><path fill="#314c59" d="M514.0625 546.3031L521.4375 546.3031L521.4375 554.6L519.2344 554.6L519.2344 548.0687L516.2656 548.0687L516.2656 554.6L514.0625 554.6L514.0625 546.3031ZM528.9531 551.95935L531.1406 552.3187Q530.71875 553.52185 529.8125 554.1625Q528.90625 554.7875 527.53125 554.7875Q525.375 554.7875 524.3281 553.3656Q523.5156 552.2406 523.5156 550.5062Q523.5156 548.4437 524.59375 547.2875Q525.6719 546.1156 527.3125 546.1156Q529.1719 546.1156 530.2344 547.33435Q531.3125 548.5531 531.2656 551.08435L525.7656 551.08435Q525.78125 552.0531 526.28125 552.6Q526.7969 553.14685 527.5625 553.14685Q528.0781 553.14685 528.4219 552.8656Q528.78125 552.58435 528.9531 551.95935ZM529.0781 549.7406Q529.0625 548.7875 528.59375 548.2875Q528.125 547.7875 527.4531 547.7875Q526.7344 547.7875 526.2656 548.3187Q525.7969 548.83435 525.7969 549.7406L529.0781 549.7406ZM533.09375 546.3031L535.1406 546.3031L535.1406 547.52185Q535.53125 546.89685 536.2031 546.5062Q536.8906 546.1156 537.71875 546.1156Q539.1719 546.1156 540.1719 547.2562Q541.1875 548.3812 541.1875 550.39685Q541.1875 552.475 540.1719 553.6312Q539.15625 554.7875 537.7031 554.7875Q537.0156 554.7875 536.4531 554.52185Q535.90625 554.2406 535.28125 553.5687L535.28125 557.7562L533.09375 557.7562L533.09375 546.3031ZM535.2656 550.3031Q535.2656 551.70935 535.8125 552.3812Q536.375 553.0375 537.1719 553.0375Q537.9375 553.0375 538.4375 552.4281Q538.9531 551.8187 538.9531 550.4125Q538.9531 549.1156 538.4219 548.4906Q537.90625 547.85 537.125 547.85Q536.3281 547.85 535.7969 548.475Q535.2656 549.08435 535.2656 550.3031ZM543.09375 546.3031L545.2031 546.3031L545.2031 551.5062L548.5781 546.3031L550.7344 546.3031L550.7344 554.6L548.625 554.6L548.625 549.2875L545.2031 554.6L543.09375 554.6L543.09375 546.3031ZM552.6406 550.33435Q552.6406 549.2406 553.1719 548.225Q553.71875 547.1937 554.7031 546.6625Q555.7031 546.1156 556.9219 546.1156Q558.7969 546.1156 560.0 547.33435Q561.2031 548.5531 561.2031 550.4281Q561.2031 552.3031 559.9844 553.5531Q558.78125 554.7875 556.9375 554.7875Q555.7969 554.7875 554.75 554.27185Q553.71875 553.7562 553.1719 552.7562Q552.6406 551.7562 552.6406 550.33435ZM554.8906 550.4437Q554.8906 551.6781 555.46875 552.33435Q556.0625 552.9906 556.9219 552.9906Q557.78125 552.9906 558.3594 552.33435Q558.9531 551.6781 558.9531 550.4281Q558.9531 549.20935 558.3594 548.5531Q557.78125 547.89685 556.9219 547.89685Q556.0625 547.89685 555.46875 548.5531Q554.8906 549.20935 554.8906 550.4437ZM570.0156 554.6L563.7344 554.6L563.7344 556.7875L561.9375 556.7875L561.9375 552.8031L562.84375 552.8031Q563.40625 552.1781 563.7656 550.85Q564.1406 549.52185 564.21875 546.3031L570.90625 546.3031L570.90625 552.8031L571.7969 552.8031L571.7969 556.7875L570.0156 556.7875L570.0156 554.6ZM568.7344 552.8031L568.75 548.1L566.09375 548.1Q565.9531 551.5375 565.0 552.8031L568.7344 552.8031Z" fill-rule="nonzero"/><path fill="#000000" d="M31.649975 337.20312L31.649975 335.125L42.9156 341.20312L42.9156 343.28125L31.649975 337.20312ZM34.556225 345.82812Q33.7906 345.82812 33.1031 345.5Q32.399975 345.15625 32.024975 344.46875Q31.649975 343.76562 31.649975 342.82812Q31.649975 341.45312 32.462475 340.65625Q33.25935 339.84375 34.556225 339.84375Q35.868725 339.84375 36.681225 340.65625Q37.4781 341.45312 37.4781 342.82812Q37.4781 343.76562 37.1031 344.46875Q36.7281 345.15625 36.024975 345.5Q35.32185 345.82812 34.556225 345.82812ZM34.57185 343.34375Q35.32185 343.34375 35.649975 343.10938Q35.774975 343.03125 35.774975 342.82812Q35.774975 342.625 35.649975 342.54688Q35.32185 342.32812 34.57185 342.32812Q33.82185 342.32812 33.493725 342.54688Q33.368725 342.625 33.368725 342.82812Q33.368725 343.03125 33.493725 343.10938Q33.82185 343.34375 34.57185 343.34375ZM39.9781 338.59375Q39.212475 338.59375 38.524975 338.26562Q37.82185 337.9375 37.44685 337.23438Q37.056225 336.53125 37.056225 335.60938Q37.056225 334.23438 37.8531 333.42188Q38.649975 332.60938 39.9781 332.60938Q41.306225 332.60938 42.1031 333.42188Q42.899975 334.23438 42.899975 335.60938Q42.899975 336.53125 42.50935 337.23438Q42.13435 337.9375 41.44685 338.26562Q40.743725 338.59375 39.9781 338.59375ZM39.993725 336.10938Q40.743725 336.10938 41.07185 335.89062Q41.181225 335.8125 41.181225 335.60938Q41.181225 335.40625 41.056225 335.32812Q40.743725 335.09375 39.993725 335.09375Q39.243725 335.09375 38.9156 335.32812Q38.7906 335.40625 38.7906 335.60938Q38.7906 335.8125 38.9156 335.89062Q39.243725 336.10938 39.993725 336.10938Z" fill-rule="nonzero"/><path fill="#000000" d="M41.743725 324.54688L44.13435 324.54688Q44.618725 324.54688 44.7906 324.46875Q44.9781 324.39062 45.056225 324.23438Q45.13435 324.0625 45.13435 323.59375L45.399975 323.59375L45.399975 327.23438L45.13435 327.23438Q45.13435 326.8125 44.899975 326.60938Q44.743725 326.46875 44.087475 326.46875L37.337475 326.46875Q36.6656 326.46875 36.4781 326.625Q36.2906 326.78125 36.25935 327.23438L36.00935 327.23438L36.00935 324.54688L36.8531 324.54688Q36.3531 324.21875 36.13435 323.875Q35.82185 323.375 35.82185 322.78125Q35.82185 322.07812 36.274975 321.5Q36.712475 320.92188 37.493725 320.625Q38.274975 320.32812 39.1656 320.32812Q40.149975 320.32812 40.94685 320.64062Q41.743725 320.9375 42.1656 321.53125Q42.587475 322.125 42.587475 322.84375Q42.587475 323.375 42.3531 323.82812Q42.181225 324.17188 41.743725 324.54688ZM41.056225 324.54688Q41.899975 323.96875 41.899975 323.29688Q41.899975 322.92188 41.50935 322.6875Q40.931225 322.32812 39.32185 322.32812Q37.6656 322.32812 37.056225 322.71875Q36.649975 322.98438 36.649975 323.42188Q36.649975 324.10938 37.649975 324.54688L41.056225 324.54688ZM35.82185 317.01562Q35.82185 316.17188 36.25935 315.46875Q36.681225 314.75 37.4781 314.375Q38.25935 314.0 39.212475 314.0Q40.57185 314.0 41.4781 314.6875Q42.587475 315.51562 42.587475 317.0Q42.587475 318.4375 41.587475 319.21875Q40.57185 320.0 39.2281 320.0Q37.8531 320.0 36.837475 319.20312Q35.82185 318.40625 35.82185 317.01562ZM36.306225 316.98438Q36.306225 317.32812 36.57185 317.57812Q36.82185 317.82812 37.6031 317.90625Q38.38435 317.98438 39.75935 317.98438Q40.493725 317.98438 41.13435 317.89062Q41.618725 317.8125 41.868725 317.57812Q42.118725 317.32812 42.118725 317.01562Q42.118725 316.70312 41.94685 316.5Q41.712475 316.23438 41.306225 316.14062Q40.649975 316.01562 38.681225 316.01562Q37.50935 316.01562 37.087475 316.14062Q36.649975 316.26562 36.44685 316.51562Q36.306225 316.70312 36.306225 316.98438ZM40.75935 307.8125L40.9156 307.59375Q41.75935 308.04688 42.181225 308.71875Q42.587475 309.39062 42.587475 310.15625Q42.587475 311.4375 41.63435 312.20312Q40.6656 312.96875 39.306225 312.96875Q38.00935 312.96875 37.00935 312.26562Q35.82185 311.42188 35.82185 309.95312Q35.82185 308.95312 36.32185 308.375Q36.82185 307.79688 37.431225 307.79688Q37.82185 307.79688 38.056225 308.03125Q38.2906 308.26562 38.2906 308.64062Q38.2906 309.04688 38.024975 309.3125Q37.743725 309.57812 37.07185 309.64062Q36.63435 309.67188 36.462475 309.82812Q36.2906 310.0 36.2906 310.20312Q36.2906 310.53125 36.649975 310.76562Q37.1656 311.125 38.25935 311.125Q39.1656 311.125 39.993725 310.84375Q40.806225 310.54688 41.212475 310.04688Q41.50935 309.67188 41.50935 309.15625Q41.50935 308.82812 41.3531 308.53125Q41.19685 308.21875 40.75935 307.8125ZM42.399975 305.73438L42.149975 305.73438Q42.149975 305.32812 41.94685 305.17188Q41.7281 305.01562 41.087475 305.01562L36.431225 305.01562L36.431225 305.65625Q36.431225 306.32812 36.681225 306.59375Q36.9156 306.84375 37.681225 307.0L37.681225 307.25L36.00935 307.25L36.00935 300.875L37.681225 300.875L37.681225 301.125Q36.993725 301.25 36.712475 301.5Q36.431225 301.73438 36.431225 302.45312L36.431225 303.10938L41.087475 303.10938Q41.743725 303.10938 41.94685 302.95312Q42.13435 302.79688 42.149975 302.39062L42.399975 302.39062L42.399975 305.73438ZM41.462475 296.5Q42.493725 297.67188 42.493725 298.59375Q42.493725 299.14062 42.13435 299.51562Q41.774975 299.875 41.2281 299.875Q40.493725 299.875 39.9156 299.25Q39.337475 298.60938 38.3531 296.5L37.712475 296.5Q36.993725 296.5 36.806225 296.57812Q36.618725 296.65625 36.4781 296.875Q36.337475 297.09375 36.337475 297.375Q36.337475 297.8125 36.5406 298.09375Q36.649975 298.28125 36.82185 298.28125Q36.962475 298.28125 37.181225 298.09375Q37.4781 297.82812 37.743725 297.82812Q38.07185 297.82812 38.32185 298.07812Q38.556225 298.32812 38.556225 298.73438Q38.556225 299.15625 38.2906 299.45312Q38.024975 299.73438 37.681225 299.73438Q37.19685 299.73438 36.743725 299.35938Q36.2906 298.96875 36.056225 298.26562Q35.82185 297.5625 35.82185 296.8125Q35.82185 295.90625 36.212475 295.375Q36.587475 294.84375 37.0406 294.6875Q37.32185 294.59375 38.3531 294.59375L40.837475 294.59375Q41.274975 294.59375 41.399975 294.5625Q41.50935 294.53125 41.57185 294.46875Q41.618725 294.39062 41.618725 294.29688Q41.618725 294.125 41.3531 293.9375L41.524975 293.73438Q42.024975 294.07812 42.25935 294.45312Q42.493725 294.8125 42.493725 295.26562Q42.493725 295.8125 42.243725 296.125Q41.9781 296.4375 41.462475 296.5ZM40.962475 296.5L38.82185 296.5Q39.306225 297.32812 39.8531 297.73438Q40.2281 298.0 40.6031 298.0Q40.9156 298.0 41.149975 297.76562Q41.337475 297.59375 41.337475 297.29688Q41.337475 296.95312 40.962475 296.5Z" fill-rule="nonzero"/><path fill="#000000" d="M39.07185 292.65625L39.07185 289.10938L41.649975 289.10938Q43.00935 289.10938 43.7906 289.6875Q44.587475 290.26562 45.2906 291.84375L43.587475 292.76562Q43.118725 291.75 42.806225 291.51562Q42.50935 291.26562 42.399975 291.25L42.399975 292.65625L39.07185 292.65625Z" fill-rule="nonzero"/><path fill="#000000" d="M36.00935 283.01562L36.00935 279.76562L36.25935 279.76562Q36.274975 280.125 36.462475 280.25Q36.649975 280.375 37.274975 280.375L38.8531 280.375Q38.8531 279.60938 38.6031 279.32812Q38.3531 279.04688 37.649975 278.79688Q36.649975 278.42188 36.274975 278.0625Q35.899975 277.6875 35.899975 277.04688Q35.899975 276.5 36.212475 276.09375Q36.50935 275.6875 37.00935 275.6875Q37.38435 275.6875 37.6656 275.9375Q37.931225 276.17188 37.931225 276.54688Q37.931225 277.3125 37.13435 277.32812Q36.587475 277.32812 36.587475 277.5625Q36.587475 277.92188 37.524975 278.26562Q38.2906 278.5625 38.493725 278.67188Q38.681225 278.78125 38.9156 279.04688Q39.056225 278.35938 39.2906 278.04688Q39.524975 277.73438 40.3531 277.21875L41.32185 276.60938Q42.1031 276.14062 42.149975 275.60938L42.399975 275.60938L42.399975 278.07812L39.2906 279.96875L39.2906 280.375L41.07185 280.375Q41.6656 280.375 41.899975 280.23438Q42.118725 280.09375 42.149975 279.76562L42.399975 279.76562L42.399975 283.01562L42.149975 283.01562Q42.13435 282.6875 41.9781 282.5Q41.806225 282.29688 41.13435 282.29688L37.368725 282.29688Q36.7281 282.29688 36.493725 282.45312Q36.25935 282.60938 36.25935 283.01562L36.00935 283.01562ZM35.82185 272.01562Q35.82185 271.17188 36.25935 270.46875Q36.681225 269.75 37.4781 269.375Q38.25935 269.0 39.212475 269.0Q40.57185 269.0 41.4781 269.6875Q42.587475 270.51562 42.587475 272.0Q42.587475 273.4375 41.587475 274.21875Q40.57185 275.0 39.2281 275.0Q37.8531 275.0 36.837475 274.20312Q35.82185 273.40625 35.82185 272.01562ZM36.306225 271.98438Q36.306225 272.32812 36.57185 272.57812Q36.82185 272.82812 37.6031 272.90625Q38.38435 272.98438 39.75935 272.98438Q40.493725 272.98438 41.13435 272.89062Q41.618725 272.8125 41.868725 272.57812Q42.118725 272.32812 42.118725 272.01562Q42.118725 271.70312 41.94685 271.5Q41.712475 271.23438 41.306225 271.14062Q40.649975 271.01562 38.681225 271.01562Q37.50935 271.01562 37.087475 271.14062Q36.649975 271.26562 36.44685 271.51562Q36.306225 271.70312 36.306225 271.98438ZM35.82185 267.75L35.82185 268.0L37.8531 268.09375L37.8531 267.84375Q36.368725 267.29688 36.368725 266.20312Q36.368725 265.78125 36.6656 265.46875Q36.962475 265.14062 37.4156 265.0625Q37.868725 264.96875 38.8531 264.96875L38.8531 266.42188L39.32185 266.42188L39.32185 264.96875Q40.4156 264.96875 40.962475 265.07812Q41.493725 265.1875 41.774975 265.5Q42.0406 265.8125 42.0406 266.35938Q42.0406 267.17188 41.1656 268.09375L41.2906 268.3125Q41.993725 267.75 42.2906 267.25Q42.587475 266.75 42.587475 266.0Q42.587475 264.53125 41.618725 263.75Q40.649975 262.95312 39.212475 262.95312Q37.712475 262.95312 36.774975 263.8125Q35.82185 264.65625 35.82185 265.8125Q35.82185 266.26562 35.993725 266.89062Q36.13435 267.3125 36.13435 267.42188Q36.13435 267.6875 35.82185 267.75ZM45.399975 259.3125L45.13435 259.3125Q45.13435 258.89062 44.94685 258.75Q44.774975 258.60938 44.024975 258.60938L42.0406 258.60938Q42.587475 259.125 42.587475 259.70312Q42.587475 260.75 41.618725 261.34375Q40.649975 261.9375 39.212475 261.9375Q37.743725 261.9375 36.7906 261.3125Q35.82185 260.67188 35.82185 259.70312Q35.82185 259.0625 36.38435 258.60938L34.462475 258.60938Q33.962475 258.60938 33.69685 258.70312Q33.4156 258.79688 33.38435 259.3125L33.13435 259.3125L33.13435 256.70312L36.38435 256.70312Q35.82185 256.25 35.82185 255.625Q35.82185 254.6875 36.75935 254.03125Q37.681225 253.35938 39.212475 253.35938Q40.75935 253.35938 41.681225 254.01562Q42.587475 254.67188 42.587475 255.60938Q42.587475 256.17188 42.0406 256.70312L44.024975 256.70312Q44.681225 256.70312 44.899975 256.57812Q45.13435 256.45312 45.13435 256.0L45.399975 256.0L45.399975 259.3125ZM41.4781 258.60938L36.94685 258.60938Q36.63435 258.78125 36.63435 259.0625Q36.63435 260.03125 39.368725 260.03125Q41.837475 260.03125 41.837475 259.09375Q41.837475 258.82812 41.4781 258.60938ZM36.94685 256.70312L41.4781 256.70312Q41.837475 256.5 41.837475 256.20312Q41.837475 255.28125 39.212475 255.28125Q36.63435 255.28125 36.63435 256.26562Q36.63435 256.5625 36.94685 256.70312ZM45.399975 250.3125L45.13435 250.3125Q45.13435 249.89062 44.94685 249.75Q44.774975 249.60938 44.024975 249.60938L42.0406 249.60938Q42.587475 250.125 42.587475 250.70312Q42.587475 251.75 41.618725 252.34375Q40.649975 252.9375 39.212475 252.9375Q37.743725 252.9375 36.7906 252.3125Q35.82185 251.67188 35.82185 250.70312Q35.82185 250.0625 36.38435 249.60938L34.462475 249.60938Q33.962475 249.60938 33.69685 249.70312Q33.4156 249.79688 33.38435 250.3125L33.13435 250.3125L33.13435 247.70312L36.38435 247.70312Q35.82185 247.25 35.82185 246.625Q35.82185 245.6875 36.75935 245.03125Q37.681225 244.35938 39.212475 244.35938Q40.75935 244.35938 41.681225 245.01562Q42.587475 245.67188 42.587475 246.60938Q42.587475 247.17188 42.0406 247.70312L44.024975 247.70312Q44.681225 247.70312 44.899975 247.57812Q45.13435 247.45312 45.13435 247.0L45.399975 247.0L45.399975 250.3125ZM41.4781 249.60938L36.94685 249.60938Q36.63435 249.78125 36.63435 250.0625Q36.63435 251.03125 39.368725 251.03125Q41.837475 251.03125 41.837475 250.09375Q41.837475 249.82812 41.4781 249.60938ZM36.94685 247.70312L41.4781 247.70312Q41.837475 247.5 41.837475 247.20312Q41.837475 246.28125 39.212475 246.28125Q36.63435 246.28125 36.63435 247.26562Q36.63435 247.5625 36.94685 247.70312ZM42.399975 240.17188L42.149975 240.17188Q42.149975 239.5625 41.2281 239.5625L38.1031 239.5625L41.2281 241.39062Q42.118725 241.375 42.149975 240.76562L42.399975 240.76562L42.399975 244.01562L42.149975 244.01562Q42.149975 243.625 41.931225 243.46875Q41.712475 243.29688 41.1656 243.29688L37.212475 243.29688Q36.25935 243.29688 36.25935 244.01562L36.00935 244.01562L36.00935 240.76562L36.25935 240.76562Q36.274975 241.125 36.462475 241.26562Q36.649975 241.39062 37.212475 241.39062L40.337475 241.39062L37.1656 239.5625Q36.649975 239.5625 36.462475 239.70312Q36.25935 239.84375 36.25935 240.17188L36.00935 240.17188L36.00935 236.92188L36.25935 236.92188Q36.274975 237.28125 36.44685 237.46875Q36.618725 237.64062 37.13435 237.64062L41.19685 237.64062Q41.75935 237.64062 41.962475 237.48438Q42.149975 237.32812 42.149975 236.92188L42.399975 236.92188L42.399975 240.17188ZM42.149975 228.92188L44.087475 228.92188L44.087475 229.17188Q43.2906 229.25 42.837475 229.73438Q42.399975 230.21875 42.399975 231.48438L42.399975 236.01562L42.149975 236.01562Q42.149975 235.60938 41.931225 235.45312Q41.712475 235.29688 41.07185 235.29688L37.274975 235.29688Q36.587475 235.29688 36.431225 235.46875Q36.274975 235.64062 36.25935 236.01562L36.00935 236.01562L36.00935 232.76562L36.25935 232.76562Q36.274975 233.10938 36.431225 233.25Q36.587475 233.39062 37.212475 233.39062L40.962475 233.39062Q41.63435 233.39062 41.806225 233.25Q41.9781 233.10938 41.9781 232.625L41.9781 232.26562Q41.9781 231.82812 41.82185 231.70312Q41.649975 231.5625 40.993725 231.5625L37.274975 231.5625Q36.63435 231.5625 36.44685 231.6875Q36.25935 231.8125 36.25935 232.17188L36.00935 232.17188L36.00935 228.92188L36.25935 228.92188Q36.274975 229.32812 36.4781 229.48438Q36.681225 229.64062 37.212475 229.64062L41.087475 229.64062Q41.7281 229.64062 41.931225 229.5Q42.13435 229.35938 42.149975 228.92188ZM42.399975 224.17188L42.149975 224.17188Q42.149975 223.5625 41.2281 223.5625L38.1031 223.5625L41.2281 225.39062Q42.118725 225.375 42.149975 224.76562L42.399975 224.76562L42.399975 228.01562L42.149975 228.01562Q42.149975 227.625 41.931225 227.46875Q41.712475 227.29688 41.1656 227.29688L37.212475 227.29688Q36.25935 227.29688 36.25935 228.01562L36.00935 228.01562L36.00935 224.76562L36.25935 224.76562Q36.274975 225.125 36.462475 225.26562Q36.649975 225.39062 37.212475 225.39062L40.337475 225.39062L37.1656 223.5625Q36.649975 223.5625 36.462475 223.70312Q36.25935 223.84375 36.25935 224.17188L36.00935 224.17188L36.00935 220.92188L36.25935 220.92188Q36.274975 221.28125 36.44685 221.46875Q36.618725 221.64062 37.13435 221.64062L41.19685 221.64062Q41.75935 221.64062 41.962475 221.48438Q42.149975 221.32812 42.149975 220.92188L42.399975 220.92188L42.399975 224.17188ZM38.9781 214.60938L38.9781 218.125Q40.243725 218.0625 40.9781 217.4375Q41.556225 216.96875 41.556225 216.3125Q41.556225 215.90625 41.32185 215.57812Q41.087475 215.23438 40.493725 214.84375L40.649975 214.60938Q41.712475 215.14062 42.149975 215.76562Q42.587475 216.39062 42.587475 217.21875Q42.587475 218.64062 41.493725 219.375Q40.618725 219.95312 39.306225 219.95312Q37.712475 219.95312 36.774975 219.09375Q35.82185 218.23438 35.82185 217.0625Q35.82185 216.09375 36.618725 215.39062Q37.4156 214.67188 38.9781 214.60938ZM38.50935 216.29688Q37.4156 216.29688 37.00935 216.42188Q36.6031 216.53125 36.38435 216.78125Q36.25935 216.9375 36.25935 217.17188Q36.25935 217.53125 36.6031 217.75Q37.212475 218.15625 38.274975 218.15625L38.50935 218.15625L38.50935 216.29688ZM42.399975 213.01562L42.149975 213.01562Q42.149975 212.625 41.94685 212.46875Q41.743725 212.29688 41.181225 212.29688L37.25935 212.29688Q36.649975 212.29688 36.462475 212.46875Q36.25935 212.625 36.25935 213.01562L36.00935 213.01562L36.00935 209.76562L36.25935 209.76562Q36.274975 210.10938 36.44685 210.25Q36.6031 210.39062 37.181225 210.39062L38.868725 210.39062L38.868725 208.5625L37.181225 208.5625Q36.712475 208.5625 36.493725 208.67188Q36.25935 208.76562 36.25935 209.17188L36.00935 209.17188L36.00935 205.92188L36.25935 205.92188Q36.25935 206.32812 36.462475 206.48438Q36.649975 206.64062 37.1031 206.64062L41.181225 206.64062Q41.774975 206.64062 41.962475 206.48438Q42.13435 206.32812 42.149975 205.92188L42.399975 205.92188L42.399975 209.17188L42.149975 209.17188Q42.13435 208.82812 41.993725 208.70312Q41.837475 208.5625 41.2281 208.5625L39.306225 208.5625L39.306225 210.39062L41.181225 210.39062Q41.7906 210.39062 41.9781 210.25Q42.149975 210.10938 42.149975 209.76562L42.399975 209.76562L42.399975 213.01562ZM42.399975 203.73438L42.149975 203.73438Q42.149975 203.32812 41.94685 203.17188Q41.7281 203.01562 41.087475 203.01562L36.431225 203.01562L36.431225 203.65625Q36.431225 204.32812 36.681225 204.59375Q36.9156 204.84375 37.681225 205.0L37.681225 205.25L36.00935 205.25L36.00935 198.875L37.681225 198.875L37.681225 199.125Q36.993725 199.25 36.712475 199.5Q36.431225 199.73438 36.431225 200.45312L36.431225 201.10938L41.087475 201.10938Q41.743725 201.10938 41.94685 200.95312Q42.13435 200.79688 42.149975 200.39062L42.399975 200.39062L42.399975 203.73438Z" fill-rule="nonzero"/><path fill="#314c59" d="M67.9 458.36563Q67.9 456.83438 68.2125 455.9125Q68.525 454.975 69.13438 454.475Q69.75938 453.975 70.69688 453.975Q71.38438 453.975 71.9 454.25626Q72.43125 454.5375 72.775 455.06876Q73.11875 455.58438 73.30625 456.33438Q73.49375 457.08438 73.49375 458.36563Q73.49375 459.88126 73.18125 460.80313Q72.88438 461.725 72.25938 462.24063Q71.65 462.74063 70.69688 462.74063Q69.4625 462.74063 68.74375 461.85Q67.9 460.7875 67.9 458.36563ZM68.97813 458.36563Q68.97813 460.475 69.47813 461.17813Q69.97813 461.88126 70.69688 461.88126Q71.43125 461.88126 71.91563 461.17813Q72.41563 460.475 72.41563 458.36563Q72.41563 456.24063 71.91563 455.55313Q71.43125 454.85 70.68125 454.85Q69.9625 454.85 69.525 455.45938Q68.97813 456.24063 68.97813 458.36563ZM75.4625 462.6L75.4625 461.39688L76.66563 461.39688L76.66563 462.6Q76.66563 463.25626 76.43125 463.6625Q76.19688 464.08438 75.69688 464.30313L75.4 463.85Q75.72813 463.70938 75.88438 463.4125Q76.04063 463.13126 76.07188 462.6L75.4625 462.6ZM77.9 458.36563Q77.9 456.83438 78.2125 455.9125Q78.525 454.975 79.13438 454.475Q79.75938 453.975 80.69688 453.975Q81.38438 453.975 81.9 454.25626Q82.43125 454.5375 82.775 455.06876Q83.11875 455.58438 83.30625 456.33438Q83.49375 457.08438 83.49375 458.36563Q83.49375 459.88126 83.18125 460.80313Q82.88438 461.725 82.25938 462.24063Q81.65 462.74063 80.69688 462.74063Q79.4625 462.74063 78.74375 461.85Q77.9 460.7875 77.9 458.36563ZM78.97813 458.36563Q78.97813 460.475 79.47813 461.17813Q79.97813 461.88126 80.69688 461.88126Q81.43125 461.88126 81.91563 461.17813Q82.41563 460.475 82.41563 458.36563Q82.41563 456.24063 81.91563 455.55313Q81.43125 454.85 80.68125 454.85Q79.9625 454.85 79.525 455.45938Q78.97813 456.24063 78.97813 458.36563ZM84.9 458.36563Q84.9 456.83438 85.2125 455.9125Q85.525 454.975 86.13438 454.475Q86.75938 453.975 87.69688 453.975Q88.38438 453.975 88.9 454.25626Q89.43125 454.5375 89.775 455.06876Q90.11875 455.58438 90.30625 456.33438Q90.49375 457.08438 90.49375 458.36563Q90.49375 459.88126 90.18125 460.80313Q89.88438 461.725 89.25938 462.24063Q88.65 462.74063 87.69688 462.74063Q86.4625 462.74063 85.74375 461.85Q84.9 460.7875 84.9 458.36563ZM85.97813 458.36563Q85.97813 460.475 86.47813 461.17813Q86.97813 461.88126 87.69688 461.88126Q88.43125 461.88126 88.91563 461.17813Q89.41563 460.475 89.41563 458.36563Q89.41563 456.24063 88.91563 455.55313Q88.43125 454.85 87.68125 454.85Q86.9625 454.85 86.525 455.45938Q85.97813 456.24063 85.97813 458.36563Z" fill-rule="nonzero"/><path fill="#314c59" d="M67.9 352.8156Q67.9 351.28436 68.2125 350.3625Q68.525 349.425 69.13438 348.925Q69.75938 348.425 70.69688 348.425Q71.38438 348.425 71.9 348.70624Q72.43125 348.9875 72.775 349.51874Q73.11875 350.03436 73.30625 350.78436Q73.49375 351.53436 73.49375 352.8156Q73.49375 354.33124 73.18125 355.2531Q72.88438 356.175 72.25938 356.6906Q71.65 357.1906 70.69688 357.1906Q69.4625 357.1906 68.74375 356.3Q67.9 355.2375 67.9 352.8156ZM68.97813 352.8156Q68.97813 354.925 69.47813 355.6281Q69.97813 356.33124 70.69688 356.33124Q71.43125 356.33124 71.91563 355.6281Q72.41563 354.925 72.41563 352.8156Q72.41563 350.6906 71.91563 350.0031Q71.43125 349.3 70.68125 349.3Q69.9625 349.3 69.525 349.90936Q68.97813 350.6906 68.97813 352.8156ZM75.4625 357.05L75.4625 355.84686L76.66563 355.84686L76.66563 357.05Q76.66563 357.70624 76.43125 358.1125Q76.19688 358.53436 75.69688 358.7531L75.4 358.3Q75.72813 358.15936 75.88438 357.8625Q76.04063 357.58124 76.07188 357.05L75.4625 357.05ZM83.44688 356.03436L83.44688 357.05L77.75938 357.05Q77.75938 356.675 77.88438 356.3156Q78.10313 355.7375 78.57188 355.175Q79.05625 354.6125 79.9625 353.8781Q81.36875 352.72186 81.85313 352.05Q82.35313 351.3781 82.35313 350.78436Q82.35313 350.15936 81.9 349.7375Q81.44688 349.3 80.72813 349.3Q79.9625 349.3 79.50938 349.7531Q79.05625 350.20624 79.04063 351.01874L77.9625 350.90936Q78.07188 349.6906 78.79063 349.0656Q79.525 348.425 80.75938 348.425Q81.99375 348.425 82.7125 349.1125Q83.43125 349.8 83.43125 350.8156Q83.43125 351.33124 83.2125 351.83124Q83.00938 352.3156 82.50938 352.8781Q82.025 353.425 80.9 354.3781Q79.94688 355.175 79.66563 355.47186Q79.4 355.7531 79.22813 356.03436L83.44688 356.03436ZM84.9 354.8L86.00938 354.70624Q86.13438 355.51874 86.57188 355.925Q87.025 356.33124 87.66563 356.33124Q88.41563 356.33124 88.94688 355.7531Q89.47813 355.175 89.47813 354.2375Q89.47813 353.33124 88.9625 352.8156Q88.4625 352.28436 87.63438 352.28436Q87.13438 352.28436 86.7125 352.51874Q86.30625 352.7531 86.07188 353.1125L85.0875 352.9875L85.91563 348.58124L90.19688 348.58124L90.19688 349.58124L86.75938 349.58124L86.30625 351.89374Q87.07188 351.34686 87.91563 351.34686Q89.04063 351.34686 89.80625 352.1281Q90.5875 352.90936 90.5875 354.14374Q90.5875 355.3 89.91563 356.15936Q89.0875 357.1906 87.66563 357.1906Q86.49375 357.1906 85.74375 356.53436Q85.00938 355.8781 84.9 354.8Z" fill-rule="nonzero"/><path fill="#314c59" d="M67.9 247.26562Q67.9 245.73438 68.2125 244.8125Q68.525 243.875 69.13438 243.375Q69.75938 242.875 70.69688 242.875Q71.38438 242.875 71.9 243.15625Q72.43125 243.4375 72.775 243.96875Q73.11875 244.48438 73.30625 245.23438Q73.49375 245.98438 73.49375 247.26562Q73.49375 248.78125 73.18125 249.70312Q72.88438 250.625 72.25938 251.14062Q71.65 251.64062 70.69688 251.64062Q69.4625 251.64062 68.74375 250.75Q67.9 249.6875 67.9 247.26562ZM68.97813 247.26562Q68.97813 249.375 69.47813 250.07812Q69.97813 250.78125 70.69688 250.78125Q71.43125 250.78125 71.91563 250.07812Q72.41563 249.375 72.41563 247.26562Q72.41563 245.14062 71.91563 244.45312Q71.43125 243.75 70.68125 243.75Q69.9625 243.75 69.525 244.35938Q68.97813 245.14062 68.97813 247.26562ZM75.4625 251.5L75.4625 250.29688L76.66563 250.29688L76.66563 251.5Q76.66563 252.15625 76.43125 252.5625Q76.19688 252.98438 75.69688 253.20312L75.4 252.75Q75.72813 252.60938 75.88438 252.3125Q76.04063 252.03125 76.07188 251.5L75.4625 251.5ZM77.9 249.25L79.00938 249.15625Q79.13438 249.96875 79.57188 250.375Q80.025 250.78125 80.66563 250.78125Q81.41563 250.78125 81.94688 250.20312Q82.47813 249.625 82.47813 248.6875Q82.47813 247.78125 81.9625 247.26562Q81.4625 246.73438 80.63438 246.73438Q80.13438 246.73438 79.7125 246.96875Q79.30625 247.20312 79.07188 247.5625L78.0875 247.4375L78.91563 243.03125L83.19688 243.03125L83.19688 244.03125L79.75938 244.03125L79.30625 246.34375Q80.07188 245.79688 80.91563 245.79688Q82.04063 245.79688 82.80625 246.57812Q83.5875 247.35938 83.5875 248.59375Q83.5875 249.75 82.91563 250.60938Q82.0875 251.64062 80.66563 251.64062Q79.49375 251.64062 78.74375 250.98438Q78.00938 250.32812 77.9 249.25ZM84.9 247.26562Q84.9 245.73438 85.2125 244.8125Q85.525 243.875 86.13438 243.375Q86.75938 242.875 87.69688 242.875Q88.38438 242.875 88.9 243.15625Q89.43125 243.4375 89.775 243.96875Q90.11875 244.48438 90.30625 245.23438Q90.49375 245.98438 90.49375 247.26562Q90.49375 248.78125 90.18125 249.70312Q89.88438 250.625 89.25938 251.14062Q88.65 251.64062 87.69688 251.64062Q86.4625 251.64062 85.74375 250.75Q84.9 249.6875 84.9 247.26562ZM85.97813 247.26562Q85.97813 249.375 86.47813 250.07812Q86.97813 250.78125 87.69688 250.78125Q88.43125 250.78125 88.91563 250.07812Q89.41563 249.375 89.41563 247.26562Q89.41563 245.14062 88.91563 244.45312Q88.43125 243.75 87.68125 243.75Q86.9625 243.75 86.525 244.35938Q85.97813 245.14062 85.97813 247.26562Z" fill-rule="nonzero"/><path fill="#314c59" d="M67.9 141.71562Q67.9 140.18437 68.2125 139.2625Q68.525 138.325 69.13438 137.825Q69.75938 137.325 70.69688 137.325Q71.38438 137.325 71.9 137.60625Q72.43125 137.8875 72.775 138.41875Q73.11875 138.93437 73.30625 139.68437Q73.49375 140.43437 73.49375 141.71562Q73.49375 143.23125 73.18125 144.15312Q72.88438 145.075 72.25938 145.59062Q71.65 146.09062 70.69688 146.09062Q69.4625 146.09062 68.74375 145.2Q67.9 144.1375 67.9 141.71562ZM68.97813 141.71562Q68.97813 143.825 69.47813 144.52812Q69.97813 145.23125 70.69688 145.23125Q71.43125 145.23125 71.91563 144.52812Q72.41563 143.825 72.41563 141.71562Q72.41563 139.59062 71.91563 138.90312Q71.43125 138.2 70.68125 138.2Q69.9625 138.2 69.525 138.80937Q68.97813 139.59062 68.97813 141.71562ZM75.4625 145.95L75.4625 144.74687L76.66563 144.74687L76.66563 145.95Q76.66563 146.60625 76.43125 147.0125Q76.19688 147.43437 75.69688 147.65312L75.4 147.2Q75.72813 147.05937 75.88438 146.7625Q76.04063 146.48125 76.07188 145.95L75.4625 145.95ZM77.9625 138.48125L77.9625 137.46562L83.525 137.46562L83.525 138.29375Q82.7125 139.16875 81.9 140.62187Q81.10313 142.05937 80.66563 143.59062Q80.3375 144.66875 80.25938 145.95L79.16563 145.95Q79.18125 144.93437 79.55625 143.49687Q79.94688 142.05937 80.65 140.73125Q81.36875 139.40312 82.18125 138.48125L77.9625 138.48125ZM84.9 143.7L86.00938 143.60625Q86.13438 144.41875 86.57188 144.825Q87.025 145.23125 87.66563 145.23125Q88.41563 145.23125 88.94688 144.65312Q89.47813 144.075 89.47813 143.1375Q89.47813 142.23125 88.9625 141.71562Q88.4625 141.18437 87.63438 141.18437Q87.13438 141.18437 86.7125 141.41875Q86.30625 141.65312 86.07188 142.0125L85.0875 141.8875L85.91563 137.48125L90.19688 137.48125L90.19688 138.48125L86.75938 138.48125L86.30625 140.79375Q87.07188 140.24687 87.91563 140.24687Q89.04063 140.24687 89.80625 141.02812Q90.5875 141.80937 90.5875 143.04375Q90.5875 144.2 89.91563 145.05937Q89.0875 146.09062 87.66563 146.09062Q86.49375 146.09062 85.74375 145.43437Q85.00938 144.77812 84.9 143.7Z" fill-rule="nonzero"/><path fill="#314c59" d="M71.86875 40.4L70.82188 40.4L70.82188 33.68125Q70.43125 34.040627 69.80625 34.415627Q69.19688 34.775 68.7125 34.946877L68.7125 33.93125Q69.5875 33.509377 70.24375 32.93125Q70.91563 32.3375 71.19688 31.775002L71.86875 31.775002L71.86875 40.4ZM75.4625 40.4L75.4625 39.196877L76.66563 39.196877L76.66563 40.4Q76.66563 41.05625 76.43125 41.4625Q76.19688 41.884377 75.69688 42.103127L75.4 41.65Q75.72813 41.509377 75.88438 41.2125Q76.04063 40.93125 76.07188 40.4L75.4625 40.4ZM77.9 36.165627Q77.9 34.634377 78.2125 33.7125Q78.525 32.775 79.13438 32.275Q79.75938 31.775002 80.69688 31.775002Q81.38438 31.775002 81.9 32.05625Q82.43125 32.3375 82.775 32.86875Q83.11875 33.384377 83.30625 34.134377Q83.49375 34.884377 83.49375 36.165627Q83.49375 37.68125 83.18125 38.603127Q82.88438 39.525 82.25938 40.040627Q81.65 40.540627 80.69688 40.540627Q79.4625 40.540627 78.74375 39.65Q77.9 38.5875 77.9 36.165627ZM78.97813 36.165627Q78.97813 38.275 79.47813 38.978127Q79.97813 39.68125 80.69688 39.68125Q81.43125 39.68125 81.91563 38.978127Q82.41563 38.275 82.41563 36.165627Q82.41563 34.040627 81.91563 33.353127Q81.43125 32.65 80.68125 32.65Q79.9625 32.65 79.525 33.259377Q78.97813 34.040627 78.97813 36.165627ZM84.9 36.165627Q84.9 34.634377 85.2125 33.7125Q85.525 32.775 86.13438 32.275Q86.75938 31.775002 87.69688 31.775002Q88.38438 31.775002 88.9 32.05625Q89.43125 32.3375 89.775 32.86875Q90.11875 33.384377 90.30625 34.134377Q90.49375 34.884377 90.49375 36.165627Q90.49375 37.68125 90.18125 38.603127Q89.88438 39.525 89.25938 40.040627Q88.65 40.540627 87.69688 40.540627Q86.4625 40.540627 85.74375 39.65Q84.9 38.5875 84.9 36.165627ZM85.97813 36.165627Q85.97813 38.275 86.47813 38.978127Q86.97813 39.68125 87.69688 39.68125Q88.43125 39.68125 88.91563 38.978127Q89.41563 38.275 89.41563 36.165627Q89.41563 34.040627 88.91563 33.353127Q88.43125 32.65 87.68125 32.65Q86.9625 32.65 86.525 33.259377Q85.97813 34.040627 85.97813 36.165627Z" fill-rule="nonzero"/><path fill="#314c59" d="M169.16388 502.27188L170.742 502.27188L170.742 509.38126L175.13263 502.27188L176.83575 502.27188L176.83575 511.6L175.25763 511.6L175.25763 504.52188L170.867 511.6L169.16388 511.6L169.16388 502.27188ZM179.1795 502.27188L180.75763 502.27188L180.75763 506.1625L182.6795 506.1625Q182.88263 504.1625 183.9295 503.11563Q184.97638 502.05313 186.63263 502.05313Q188.0545 502.05313 188.867 502.63126Q189.6795 503.19376 190.21075 504.19376Q190.742 505.19376 190.742 506.89688Q190.742 509.31876 189.64825 510.56876Q188.5545 511.81876 186.66388 511.81876Q184.91388 511.81876 183.85138 510.6625Q182.8045 509.49063 182.6795 507.475L180.75763 507.475L180.75763 511.6L179.1795 511.6L179.1795 502.27188ZM186.72638 503.39688Q185.5545 503.39688 184.91388 504.2875Q184.27325 505.17813 184.27325 506.7875Q184.27325 508.70938 184.91388 509.61563Q185.57013 510.50626 186.66388 510.50626Q187.742 510.50626 188.4295 509.67813Q189.117 508.85 189.117 507.00626Q189.117 505.19376 188.52325 504.30313Q187.9295 503.39688 186.72638 503.39688ZM193.9295 502.27188L201.28888 502.27188L201.28888 511.6L199.71075 511.6L199.71075 503.56876L195.52325 503.56876L195.52325 508.225Q195.52325 509.85 195.41388 510.36563Q195.3045 510.88126 194.82013 511.27188Q194.35138 511.6625 193.46075 511.6625Q192.91388 511.6625 192.19513 511.58438L192.19513 510.27188L192.88263 510.27188Q193.367 510.27188 193.57013 510.17813Q193.78888 510.06876 193.85138 509.85Q193.9295 509.63126 193.9295 508.4125L193.9295 502.27188ZM204.13263 502.27188L205.72638 502.27188L205.72638 505.9125L207.72638 505.9125Q209.6795 505.9125 210.742 506.67813Q211.8045 507.42813 211.8045 508.77188Q211.8045 509.94376 210.91388 510.77188Q210.03888 511.6 208.08575 511.6L204.13263 511.6L204.13263 502.27188ZM205.72638 510.30313L207.38263 510.30313Q208.88263 510.30313 209.52325 509.92813Q210.16388 509.55313 210.16388 508.77188Q210.16388 508.17813 209.6795 507.70938Q209.21075 507.225 207.58575 507.225L205.72638 507.225L205.72638 510.30313Z" fill-rule="nonzero"/><path fill="#314c59" d="M307.66708 510.44376Q306.79208 511.19376 305.96396 511.50626Q305.15146 511.81876 304.22958 511.81876Q302.6827 511.81876 301.85458 511.06876Q301.04208 510.30313 301.04208 509.13126Q301.04208 508.45938 301.35458 507.89688Q301.66708 507.31876 302.16708 506.975Q302.66708 506.63126 303.3077 506.45938Q303.77646 506.33438 304.71396 506.225Q306.6202 505.99063 307.52646 505.67813Q307.54208 505.35 307.54208 505.25626Q307.54208 504.30313 307.08896 503.89688Q306.47958 503.36563 305.29208 503.36563Q304.16708 503.36563 303.63583 503.75626Q303.10458 504.14688 302.85458 505.14688L301.3077 504.92813Q301.52646 503.92813 301.9952 503.31876Q302.47958 502.70938 303.38583 502.38126Q304.3077 502.05313 305.52646 502.05313Q306.71396 502.05313 307.46396 502.33438Q308.21396 502.61563 308.5577 503.05313Q308.91708 503.475 309.0577 504.11563Q309.13583 504.52188 309.13583 505.58438L309.13583 507.69376Q309.13583 509.89688 309.22958 510.49063Q309.33896 511.06876 309.63583 511.6L307.97958 511.6Q307.72958 511.1 307.66708 510.44376ZM307.52646 506.9125Q306.66708 507.27188 304.94833 507.50626Q303.97958 507.64688 303.57333 507.83438Q303.16708 508.00626 302.94833 508.35Q302.72958 508.67813 302.72958 509.1Q302.72958 509.725 303.19833 510.14688Q303.6827 510.56876 304.60458 510.56876Q305.52646 510.56876 306.22958 510.17813Q306.94833 509.77188 307.27646 509.08438Q307.52646 508.5375 307.52646 507.49063L307.52646 506.9125ZM311.58896 502.27188L315.22958 502.27188Q316.57333 502.27188 317.22958 502.49063Q317.88583 502.70938 318.35458 503.31876Q318.82333 503.9125 318.82333 504.74063Q318.82333 505.4125 318.54208 505.9125Q318.27646 506.4125 317.71396 506.74063Q318.3702 506.95938 318.8077 507.56876Q319.2452 508.1625 319.2452 508.99063Q319.15146 510.31876 318.29208 510.95938Q317.4327 511.6 315.79208 511.6L311.58896 511.6L311.58896 502.27188ZM313.16708 506.19376L314.85458 506.19376Q315.85458 506.19376 316.22958 506.1Q316.6202 505.99063 316.91708 505.6625Q317.21396 505.33438 317.21396 504.89688Q317.21396 504.1625 316.6827 503.86563Q316.16708 503.56876 314.90146 503.56876L313.16708 503.56876L313.16708 506.19376ZM313.16708 510.30313L315.2452 510.30313Q316.58896 510.30313 317.08896 509.99063Q317.58896 509.67813 317.6202 508.9125Q317.6202 508.45938 317.32333 508.08438Q317.04208 507.69376 316.57333 507.6Q316.10458 507.49063 315.07333 507.49063L313.16708 507.49063L313.16708 510.30313ZM321.58896 502.27188L326.94833 502.27188L326.94833 503.56876L323.16708 503.56876L323.16708 511.6L321.58896 511.6L321.58896 502.27188ZM328.4952 515.1937L328.32333 513.70935Q328.83896 513.85 329.22958 513.85Q329.76083 513.85 330.07333 513.6781Q330.38583 513.5062 330.58896 513.1781Q330.7452 512.9437 331.07333 512.0062Q331.1202 511.86563 331.21396 511.61563L327.6827 502.27188L329.38583 502.27188L331.32333 507.67813Q331.69833 508.69376 331.9952 509.83438Q332.27646 508.74063 332.65146 507.70938L334.65146 502.27188L336.22958 502.27188L332.6827 511.75626Q332.10458 513.3031 331.79208 513.8812Q331.3702 514.6625 330.82333 515.02185Q330.27646 515.3812 329.52646 515.3812Q329.0577 515.3812 328.4952 515.1937ZM343.66708 508.17813L345.21396 508.38126Q344.96396 509.99063 343.91708 510.9125Q342.8702 511.81876 341.33896 511.81876Q339.41708 511.81876 338.2452 510.56876Q337.08896 509.30313 337.08896 506.975Q337.08896 505.45938 337.58896 504.33438Q338.08896 503.19376 339.10458 502.63126Q340.13583 502.05313 341.33896 502.05313Q342.8702 502.05313 343.82333 502.83438Q344.79208 503.6 345.07333 505.00626L343.52646 505.24063Q343.3077 504.30313 342.7452 503.83438Q342.19833 503.35 341.40146 503.35Q340.21396 503.35 339.46396 504.20938Q338.71396 505.06876 338.71396 506.92813Q338.71396 508.80313 339.4327 509.6625Q340.15146 510.50626 341.32333 510.50626Q342.2452 510.50626 342.8702 509.94376Q343.4952 509.36563 343.66708 508.17813ZM345.71396 502.27188L353.3077 502.27188L353.3077 503.56876L350.29208 503.56876L350.29208 511.6L348.72958 511.6L348.72958 503.56876L345.71396 503.56876L345.71396 502.27188Z" fill-rule="nonzero"/><path fill="#314c59" d="M405.57654 508.17813L407.1234 508.38126Q406.8734 509.99063 405.82654 510.9125Q404.77966 511.81876 403.2484 511.81876Q401.32654 511.81876 400.15466 510.56876Q398.9984 509.30313 398.9984 506.975Q398.9984 505.45938 399.4984 504.33438Q399.9984 503.19376 401.01404 502.63126Q402.0453 502.05313 403.2484 502.05313Q404.77966 502.05313 405.7328 502.83438Q406.70154 503.6 406.9828 505.00626L405.4359 505.24063Q405.21716 504.30313 404.65466 503.83438Q404.1078 503.35 403.3109 503.35Q402.1234 503.35 401.3734 504.20938Q400.6234 505.06876 400.6234 506.92813Q400.6234 508.80313 401.34216 509.6625Q402.0609 510.50626 403.2328 510.50626Q404.15466 510.50626 404.77966 509.94376Q405.40466 509.36563 405.57654 508.17813ZM414.8734 508.6L416.51404 508.80313Q416.1234 510.225 415.07654 511.02188Q414.02966 511.81876 412.40466 511.81876Q410.3578 511.81876 409.15466 510.55313Q407.95154 509.2875 407.95154 507.00626Q407.95154 504.6625 409.15466 503.36563Q410.3734 502.05313 412.3109 502.05313Q414.1859 502.05313 415.3734 503.33438Q416.5609 504.6 416.5609 506.9125Q416.5609 507.05313 416.5453 507.33438L409.59216 507.33438Q409.6703 508.88126 410.45154 509.69376Q411.2484 510.50626 412.40466 510.50626Q413.27966 510.50626 413.88904 510.05313Q414.51404 509.6 414.8734 508.6ZM409.6703 506.0375L414.88904 506.0375Q414.77966 504.86563 414.2953 504.27188Q413.52966 503.35 412.32654 503.35Q411.2484 503.35 410.4984 504.08438Q409.76404 504.81876 409.6703 506.0375ZM418.4984 502.27188L420.07654 502.27188L420.07654 506.14688L424.45154 506.14688L424.45154 502.27188L426.0453 502.27188L426.0453 511.6L424.45154 511.6L424.45154 507.45938L420.07654 507.45938L420.07654 511.6L418.4984 511.6L418.4984 502.27188ZM427.6234 502.27188L435.21716 502.27188L435.21716 503.56876L432.20154 503.56876L432.20154 511.6L430.63904 511.6L430.63904 503.56876L427.6234 503.56876L427.6234 502.27188ZM443.82654 502.27188L443.82654 511.6L442.26404 511.6L442.26404 507.95938L441.34216 507.95938Q440.51404 507.95938 440.09216 508.17813Q439.6859 508.39688 438.90466 509.55313L437.52966 511.6L435.5609 511.6L437.27966 509.08438Q438.0609 507.92813 438.82654 507.7875Q437.4828 507.6 436.82654 506.81876Q436.1703 506.02188 436.1703 504.99063Q436.1703 503.77188 437.01404 503.02188Q437.8734 502.27188 439.4984 502.27188L443.82654 502.27188ZM442.26404 503.56876L440.01404 503.56876Q438.59216 503.56876 438.1859 504.02188Q437.77966 504.45938 437.77966 505.0375Q437.77966 505.88126 438.3734 506.27188Q438.9828 506.6625 440.51404 506.6625L442.26404 506.6625L442.26404 503.56876ZM453.32654 498.4125L454.71716 498.42813Q454.6234 499.36563 454.2953 499.74063Q453.9828 500.1 453.46716 500.20938Q452.96716 500.31876 451.4984 500.31876Q449.52966 500.31876 448.8109 500.69376Q448.1078 501.06876 447.7953 501.89688Q447.4828 502.725 447.45154 504.0375Q448.0453 503.14688 448.84216 502.70938Q449.63904 502.27188 450.65466 502.27188Q452.4828 502.27188 453.6859 503.5375Q454.88904 504.7875 454.88904 506.94376Q454.88904 508.56876 454.27966 509.61563Q453.6859 510.6625 452.84216 511.24063Q452.01404 511.81876 450.59216 511.81876Q448.9203 511.81876 447.9984 511.05313Q447.07654 510.2875 446.57654 509.1Q446.09216 507.9125 446.09216 504.975Q446.09216 501.27188 447.34216 499.99063Q448.6078 498.70938 451.20154 498.70938Q452.82654 498.70938 453.0453 498.6625Q453.26404 498.6 453.32654 498.4125ZM453.2484 506.89688Q453.2484 505.44376 452.5453 504.50626Q451.8578 503.56876 450.6078 503.56876Q449.2953 503.56876 448.57654 504.55313Q447.8734 505.5375 447.8734 507.19376Q447.8734 508.81876 448.65466 509.67813Q449.45154 510.5375 450.59216 510.5375Q451.77966 510.5375 452.51404 509.5375Q453.2484 508.5375 453.2484 506.89688ZM456.4828 515.1781L456.4828 502.27188L457.9203 502.27188L457.9203 503.475Q458.4359 502.77188 459.07654 502.4125Q459.71716 502.05313 460.6234 502.05313Q461.82654 502.05313 462.7328 502.67813Q463.65466 503.2875 464.1234 504.4125Q464.59216 505.52188 464.59216 506.86563Q464.59216 508.2875 464.07654 509.44376Q463.5609 510.58438 462.57654 511.20938Q461.59216 511.81876 460.51404 511.81876Q459.7328 511.81876 459.09216 511.49063Q458.46716 511.14688 458.0609 510.63126L458.0609 515.1781L456.4828 515.1781ZM457.9203 506.99063Q457.9203 508.7875 458.63904 509.64688Q459.3734 510.50626 460.40466 510.50626Q461.46716 510.50626 462.21716 509.61563Q462.96716 508.725 462.96716 506.85Q462.96716 505.06876 462.2328 504.17813Q461.4984 503.2875 460.4828 503.2875Q459.46716 503.2875 458.6859 504.24063Q457.9203 505.17813 457.9203 506.99063ZM466.45154 502.27188L468.0453 502.27188L468.0453 505.9125L470.0453 505.9125Q471.9984 505.9125 473.0609 506.67813Q474.1234 507.42813 474.1234 508.77188Q474.1234 509.94376 473.2328 510.77188Q472.3578 511.6 470.40466 511.6L466.45154 511.6L466.45154 502.27188ZM468.0453 510.30313L469.70154 510.30313Q471.20154 510.30313 471.84216 509.92813Q472.4828 509.55313 472.4828 508.77188Q472.4828 508.17813 471.9984 507.70938Q471.52966 507.225 469.90466 507.225L468.0453 507.225L468.0453 510.30313ZM481.63904 511.6L481.63904 498.70938L484.20154 498.70938L487.2484 507.83438Q487.6703 509.11563 487.8578 509.74063Q488.07654 509.0375 488.5453 507.67813L491.63904 498.70938L493.9203 498.70938L493.9203 511.6L492.27966 511.6L492.27966 500.81876L488.5453 511.6L486.9984 511.6L483.27966 500.63126L483.27966 511.6L481.63904 511.6ZM500.3734 511.6L495.3734 498.70938L497.21716 498.70938L500.57654 508.06876Q500.96716 509.19376 501.2484 510.17813Q501.5453 509.13126 501.9359 508.06876L505.4203 498.70938L507.15466 498.70938L502.1234 511.6L500.3734 511.6ZM507.6859 511.6L507.6859 498.70938L512.5453 498.70938Q513.82654 498.70938 514.4984 498.83438Q515.45154 498.99063 516.09216 499.44376Q516.7328 499.88126 517.1234 500.69376Q517.51404 501.49063 517.51404 502.44376Q517.51404 504.08438 516.46716 505.225Q515.4203 506.36563 512.70154 506.36563L509.38904 506.36563L509.38904 511.6L507.6859 511.6ZM509.38904 504.83438L512.71716 504.83438Q514.3734 504.83438 515.0609 504.225Q515.76404 503.61563 515.76404 502.49063Q515.76404 501.67813 515.3578 501.11563Q514.95154 500.5375 514.27966 500.35Q513.84216 500.24063 512.6859 500.24063L509.38904 500.24063L509.38904 504.83438ZM524.9984 511.6L523.4203 511.6L523.4203 501.52188Q522.84216 502.06876 521.9203 502.61563Q520.9984 503.14688 520.2484 503.42813L520.2484 501.89688Q521.57654 501.27188 522.57654 500.38126Q523.57654 499.49063 523.9828 498.6625L524.9984 498.6625L524.9984 511.6Z" fill-rule="nonzero"/><path fill="#314c59" d="M569.54846 511.6L569.54846 498.70938L572.11096 498.70938L575.15784 507.83438Q575.5797 509.11563 575.7672 509.74063Q575.98596 509.0375 576.4547 507.67813L579.54846 498.70938L581.8297 498.70938L581.8297 511.6L580.1891 511.6L580.1891 500.81876L576.4547 511.6L574.90784 511.6L571.1891 500.63126L571.1891 511.6L569.54846 511.6ZM588.28284 511.6L583.28284 498.70938L585.1266 498.70938L588.48596 508.06876Q588.8766 509.19376 589.15784 510.17813Q589.4547 509.13126 589.84534 508.06876L593.3297 498.70938L595.0641 498.70938L590.03284 511.6L588.28284 511.6ZM595.59534 511.6L595.59534 498.70938L600.4547 498.70938Q601.73596 498.70938 602.40784 498.83438Q603.36096 498.99063 604.0016 499.44376Q604.6422 499.88126 605.03284 500.69376Q605.42346 501.49063 605.42346 502.44376Q605.42346 504.08438 604.3766 505.225Q603.3297 506.36563 600.61096 506.36563L597.29846 506.36563L597.29846 511.6L595.59534 511.6ZM597.29846 504.83438L600.6266 504.83438Q602.28284 504.83438 602.97034 504.225Q603.67346 503.61563 603.67346 502.49063Q603.67346 501.67813 603.2672 501.11563Q602.86096 500.5375 602.1891 500.35Q601.7516 500.24063 600.59534 500.24063L597.29846 500.24063L597.29846 504.83438ZM612.90784 511.6L611.3297 511.6L611.3297 501.52188Q610.7516 502.06876 609.8297 502.61563Q608.90784 503.14688 608.15784 503.42813L608.15784 501.89688Q609.48596 501.27188 610.48596 500.38126Q611.48596 499.49063 611.8922 498.6625L612.90784 498.6625L612.90784 511.6ZM616.2047 511.81876L619.9391 498.49063L621.2047 498.49063L617.48596 511.81876L616.2047 511.81876ZM630.2672 510.08438L630.2672 511.6L621.7516 511.6Q621.73596 511.02188 621.9391 510.50626Q622.2672 509.63126 622.97034 508.7875Q623.6891 507.94376 625.04846 506.83438Q627.1422 505.11563 627.8766 504.11563Q628.6266 503.1 628.6266 502.20938Q628.6266 501.25626 627.9547 500.61563Q627.28284 499.975 626.2047 499.975Q625.04846 499.975 624.36096 500.6625Q623.6891 501.35 623.67346 502.55313L622.04846 502.38126Q622.22034 500.56876 623.29846 499.61563Q624.3922 498.6625 626.23596 498.6625Q628.0797 498.6625 629.15784 499.69376Q630.2516 500.725 630.2516 502.24063Q630.2516 503.00626 629.92346 503.75626Q629.61096 504.50626 628.8766 505.33438Q628.1422 506.1625 626.4391 507.6Q625.0172 508.80313 624.61096 509.225Q624.2047 509.64688 623.9547 510.08438L630.2672 510.08438Z" fill-rule="nonzero"/><path fill="#314c59" d="M703.45795 511.6L703.45795 498.70938L706.02045 498.70938L709.0673 507.83438Q709.4892 509.11563 709.6767 509.74063Q709.89545 509.0375 710.3642 507.67813L713.45795 498.70938L715.7392 498.70938L715.7392 511.6L714.0986 511.6L714.0986 500.81876L710.3642 511.6L708.8173 511.6L705.0986 500.63126L705.0986 511.6L703.45795 511.6ZM722.1923 511.6L717.1923 498.70938L719.0361 498.70938L722.39545 508.06876Q722.7861 509.19376 723.0673 510.17813Q723.3642 509.13126 723.7548 508.06876L727.2392 498.70938L728.9736 498.70938L723.9423 511.6L722.1923 511.6ZM729.5048 511.6L729.5048 498.70938L734.3642 498.70938Q735.64545 498.70938 736.3173 498.83438Q737.27045 498.99063 737.9111 499.44376Q738.5517 499.88126 738.9423 500.69376Q739.33295 501.49063 739.33295 502.44376Q739.33295 504.08438 738.2861 505.225Q737.2392 506.36563 734.52045 506.36563L731.20795 506.36563L731.20795 511.6L729.5048 511.6ZM731.20795 504.83438L734.5361 504.83438Q736.1923 504.83438 736.8798 504.225Q737.58295 503.61563 737.58295 502.49063Q737.58295 501.67813 737.1767 501.11563Q736.77045 500.5375 736.0986 500.35Q735.6611 500.24063 734.5048 500.24063L731.20795 500.24063L731.20795 504.83438ZM754.1767 510.08438L754.1767 511.6L745.6611 511.6Q745.64545 511.02188 745.8486 510.50626Q746.1767 509.63126 746.8798 508.7875Q747.5986 507.94376 748.95795 506.83438Q751.0517 505.11563 751.7861 504.11563Q752.5361 503.1 752.5361 502.20938Q752.5361 501.25626 751.8642 500.61563Q751.1923 499.975 750.1142 499.975Q748.95795 499.975 748.27045 500.6625Q747.5986 501.35 747.58295 502.55313L745.95795 502.38126Q746.1298 500.56876 747.20795 499.61563Q748.3017 498.6625 750.14545 498.6625Q751.9892 498.6625 753.0673 499.69376Q754.1611 500.725 754.1611 502.24063Q754.1611 503.00626 753.83295 503.75626Q753.52045 504.50626 752.7861 505.33438Q752.0517 506.1625 750.3486 507.6Q748.9267 508.80313 748.52045 509.225Q748.1142 509.64688 747.8642 510.08438L754.1767 510.08438ZM755.1142 511.81876L758.8486 498.49063L760.1142 498.49063L756.39545 511.81876L755.1142 511.81876ZM766.8173 511.6L765.2392 511.6L765.2392 501.52188Q764.6611 502.06876 763.7392 502.61563Q762.8173 503.14688 762.0673 503.42813L762.0673 501.89688Q763.39545 501.27188 764.39545 500.38126Q765.39545 499.49063 765.8017 498.6625L766.8173 498.6625L766.8173 511.6Z" fill-rule="nonzero"/><path fill="#314c59" d="M839.8674 511.6L839.8674 498.70938L842.4299 498.70938L845.47675 507.83438Q845.8986 509.11563 846.0861 509.74063Q846.3049 509.0375 846.7736 507.67813L849.8674 498.70938L852.1486 498.70938L852.1486 511.6L850.508 511.6L850.508 500.81876L846.7736 511.6L845.22675 511.6L841.508 500.63126L841.508 511.6L839.8674 511.6ZM858.60175 511.6L853.60175 498.70938L855.4455 498.70938L858.8049 508.06876Q859.1955 509.19376 859.47675 510.17813Q859.7736 509.13126 860.16425 508.06876L863.6486 498.70938L865.383 498.70938L860.35175 511.6L858.60175 511.6ZM865.91425 511.6L865.91425 498.70938L870.7736 498.70938Q872.0549 498.70938 872.72675 498.83438Q873.6799 498.99063 874.3205 499.44376Q874.9611 499.88126 875.35175 500.69376Q875.7424 501.49063 875.7424 502.44376Q875.7424 504.08438 874.6955 505.225Q873.6486 506.36563 870.9299 506.36563L867.6174 506.36563L867.6174 511.6L865.91425 511.6ZM867.6174 504.83438L870.9455 504.83438Q872.60175 504.83438 873.28925 504.225Q873.9924 503.61563 873.9924 502.49063Q873.9924 501.67813 873.5861 501.11563Q873.1799 500.5375 872.508 500.35Q872.0705 500.24063 870.91425 500.24063L867.6174 500.24063L867.6174 504.83438ZM890.5861 510.08438L890.5861 511.6L882.0705 511.6Q882.0549 511.02188 882.258 510.50626Q882.5861 509.63126 883.28925 508.7875Q884.008 507.94376 885.3674 506.83438Q887.4611 505.11563 888.1955 504.11563Q888.9455 503.1 888.9455 502.20938Q888.9455 501.25626 888.2736 500.61563Q887.60175 499.975 886.5236 499.975Q885.3674 499.975 884.6799 500.6625Q884.008 501.35 883.9924 502.55313L882.3674 502.38126Q882.53925 500.56876 883.6174 499.61563Q884.7111 498.6625 886.5549 498.6625Q888.3986 498.6625 889.47675 499.69376Q890.5705 500.725 890.5705 502.24063Q890.5705 503.00626 890.2424 503.75626Q889.9299 504.50626 889.1955 505.33438Q888.4611 506.1625 886.758 507.6Q885.3361 508.80313 884.9299 509.225Q884.5236 509.64688 884.2736 510.08438L890.5861 510.08438ZM891.5236 511.81876L895.258 498.49063L896.5236 498.49063L892.8049 511.81876L891.5236 511.81876ZM905.5861 510.08438L905.5861 511.6L897.0705 511.6Q897.0549 511.02188 897.258 510.50626Q897.5861 509.63126 898.28925 508.7875Q899.008 507.94376 900.3674 506.83438Q902.4611 505.11563 903.1955 504.11563Q903.9455 503.1 903.9455 502.20938Q903.9455 501.25626 903.2736 500.61563Q902.60175 499.975 901.5236 499.975Q900.3674 499.975 899.6799 500.6625Q899.008 501.35 898.9924 502.55313L897.3674 502.38126Q897.53925 500.56876 898.6174 499.61563Q899.7111 498.6625 901.5549 498.6625Q903.3986 498.6625 904.47675 499.69376Q905.5705 500.725 905.5705 502.24063Q905.5705 503.00626 905.2424 503.75626Q904.9299 504.50626 904.1955 505.33438Q903.4611 506.1625 901.758 507.6Q900.3361 508.80313 899.9299 509.225Q899.5236 509.64688 899.2736 510.08438L905.5861 510.08438Z" fill-rule="nonzero"/></svg>