<svg fill="none" stroke-linecap="square" stroke-miterlimit="10" width="1005" height="588" xmlns="http://www.w3.org/2000/svg"><path fill="#fff" d="M0 0h1005v588H0V0z"/><path stroke="#333" stroke-linecap="butt" d="M136.5 458.5h839"/><path fill="#eee" d="M109.5 485.5l27-26h839l-27 26z"/><path stroke="#ccc" stroke-linecap="butt" d="M136.5 353.5h839m-839-106h839m-839-106h839m-839-105h839"/><path d="M136.5 423.5h839m-839-35h839m-839-71h839m-839-35h839m-839-70h839m-839-35h839m-839-71h839m-839-35h839"/><path stroke="#000" stroke-linecap="butt" d="M109.5 485.5v-449"/><clipPath id="a"><path d="M109.4 36.4h866.2v449.2H109.4V36.4z"/></clipPath><path fill="#00405e" clip-path="url(#a)" d="M257 459l-22 22z"/><path fill="#3382a7" clip-path="url(#a)" d="M235 481h-89l22-22h89z"/><path clip-path="url(#a)" d="M235 481h-89 89z"/><path fill="#006391" clip-path="url(#a)" d="M235 481h-89 89z"/><path fill="#486d8f" clip-path="url(#a)" d="M394 317v142l-22 22V339z"/><path fill="#8cb9e3" clip-path="url(#a)" d="M372 339h-89l22-22h89z"/><path stroke="#000" stroke-width="2" stroke-linecap="butt" clip-path="url(#a)" d="M372 481h-89V339h89z"/><path fill="#6fa8dc" clip-path="url(#a)" d="M372 481h-89V339h89z"/><path fill="#756d8b" clip-path="url(#a)" d="M530 36v423l-22 22V58z"/><path fill="#c3b9de" clip-path="url(#a)" d="M508 58h-89l22-22h89z"/><path stroke="#000" stroke-width="2" stroke-linecap="butt" clip-path="url(#a)" d="M508 481h-89V58h89z"/><path fill="#b4a7d6" clip-path="url(#a)" d="M508 481h-89V58h89z"/><path stroke="#000" stroke-linecap="butt" d="M97.5 458.5h12m-12-105h12m-12-106h12m-12-106h12m-12-105h12"/><path stroke="#006391" stroke-width="3" stroke-linejoin="round" stroke-linecap="round" d="M192.266 481.163q0 1.468-.61 2.25-.61.78-1.781.78-1.172 0-1.781-.765-.61-.765-.625-2.187v-1.313q0-1.5.61-2.265.624-.766 1.78-.766 1.172 0 1.782.766.609.765.625 2.187v1.313zm-1.407-1.438q0-.89-.25-1.281-.234-.406-.75-.406-.5 0-.734.39-.234.375-.25 1.188v1.734q0 .86.234 1.281.235.422.766.422.516 0 .734-.39.235-.407.25-1.25v-1.688z"/><path fill="#fff" d="M192.266 481.163q0 1.468-.61 2.25-.61.78-1.781.78-1.172 0-1.781-.765-.61-.765-.625-2.187v-1.313q0-1.5.61-2.265.624-.766 1.78-.766 1.172 0 1.782.766.609.765.625 2.187v1.313zm-1.407-1.438q0-.89-.25-1.281-.234-.406-.75-.406-.5 0-.734.39-.234.375-.25 1.188v1.734q0 .86.234 1.281.235.422.766.422.516 0 .734-.39.235-.407.25-1.25v-1.688z"/><path stroke="#6fa8dc" stroke-width="3" stroke-linejoin="round" stroke-linecap="round" d="M301.953 408.35h1.36q.968 0 1.421-.469.47-.484.47-1.296 0-.766-.47-1.188-.453-.437-1.265-.437-.719 0-1.219.406-.484.39-.484 1.031h-2.547q0-1 .531-1.797.547-.797 1.516-1.234.984-.453 2.14-.453 2.031 0 3.188.969 1.156.968 1.156 2.671 0 .875-.547 1.625-.531.735-1.406 1.125 1.094.391 1.625 1.172.531.766.531 1.813 0 1.719-1.25 2.75-1.234 1.015-3.297 1.015-1.906 0-3.125-1-1.219-1.015-1.219-2.671h2.547q0 .718.532 1.171.546.454 1.328.454.906 0 1.422-.47.515-.484.515-1.28 0-1.907-2.11-1.907h-1.343v-2zm10 0h1.36q.968 0 1.421-.469.47-.484.47-1.296 0-.766-.47-1.188-.453-.437-1.265-.437-.719 0-1.219.406-.484.39-.484 1.031h-2.547q0-1 .531-1.797.547-.797 1.516-1.234.984-.453 2.14-.453 2.031 0 3.188.969 1.156.968 1.156 2.671 0 .875-.547 1.625-.531.735-1.406 1.125 1.094.391 1.625 1.172.531.766.531 1.813 0 1.719-1.25 2.75-1.234 1.015-3.297 1.015-1.906 0-3.125-1-1.219-1.015-1.219-2.671h2.547q0 .718.532 1.171.546.454 1.328.454.906 0 1.422-.47.515-.484.515-1.28 0-1.907-2.11-1.907h-1.343v-2zm8.188 10.735l-1.329-.688.313-.578q.594-1.063.61-2.125v-1.969h2.14l-.016 1.75q0 .985-.484 1.969-.484 1-1.234 1.64zm3.609-9.5l.734-6.5h7.172v2.125h-5.094l-.312 2.75q.906-.485 1.922-.485 1.828 0 2.86 1.14 1.046 1.126 1.046 3.157 0 1.25-.531 2.235-.516.968-1.5 1.515-.969.531-2.297.531-1.156 0-2.156-.468-.985-.47-1.563-1.313-.578-.86-.61-1.953h2.517q.078.797.546 1.25.485.438 1.266.438.86 0 1.328-.61.469-.625.469-1.765 0-1.079-.547-1.657-.531-.594-1.516-.594-.906 0-1.468.485l-.25.219-2.016-.5zm18.234 1q0 2.656-1.109 4.062-1.094 1.406-3.203 1.406-2.094 0-3.203-1.375-1.11-1.375-1.14-3.953v-2.36q0-2.687 1.108-4.062 1.125-1.39 3.22-1.39 2.093 0 3.187 1.375 1.11 1.375 1.14 3.953v2.344zm-2.546-2.578q0-1.594-.438-2.313-.422-.734-1.344-.734-.906 0-1.328.703-.422.687-.453 2.156v3.11q0 1.562.422 2.328.437.75 1.375.75.922 0 1.328-.72.422-.734.438-2.234v-3.046zm3.89-2.47q0-1.171.766-1.905.765-.735 2.015-.735t2.016.735q.766.718.766 1.953v.64q0 1.188-.766 1.906-.766.72-2 .72-1.25 0-2.031-.72-.766-.734-.766-1.968v-.625zm1.688.688q0 .531.296.86.313.312.797.312.5 0 .782-.328.296-.328.296-.875v-.656q0-.516-.296-.844-.282-.328-.782-.328-.484 0-.796.328-.297.313-.297.89v.641zm4.437 6.516q0-1.188.766-1.906.781-.735 2.015-.735 1.25 0 2.016.719t.766 1.984v.625q0 1.172-.766 1.907-.75.718-2 .718-1.266 0-2.031-.718-.766-.735-.766-1.938v-.656zm1.688.687q0 .485.312.829.313.343.797.343 1.063 0 1.063-1.187v-.672q0-.531-.297-.844-.297-.328-.797-.328-.485 0-.781.328-.297.313-.297.875v.656zm-4.516 1.5l-1.234-.671 6.234-10 1.25.671-6.25 10z"/><path fill="#fff" d="M301.953 408.35h1.36q.968 0 1.421-.469.47-.484.47-1.296 0-.766-.47-1.188-.453-.437-1.265-.437-.719 0-1.219.406-.484.39-.484 1.031h-2.547q0-1 .531-1.797.547-.797 1.516-1.234.984-.453 2.14-.453 2.031 0 3.188.969 1.156.968 1.156 2.671 0 .875-.547 1.625-.531.735-1.406 1.125 1.094.391 1.625 1.172.531.766.531 1.813 0 1.719-1.25 2.75-1.234 1.015-3.297 1.015-1.906 0-3.125-1-1.219-1.015-1.219-2.671h2.547q0 .718.532 1.171.546.454 1.328.454.906 0 1.422-.47.515-.484.515-1.28 0-1.907-2.11-1.907h-1.343v-2zm10 0h1.36q.968 0 1.421-.469.47-.484.47-1.296 0-.766-.47-1.188-.453-.437-1.265-.437-.719 0-1.219.406-.484.39-.484 1.031h-2.547q0-1 .531-1.797.547-.797 1.516-1.234.984-.453 2.14-.453 2.031 0 3.188.969 1.156.968 1.156 2.671 0 .875-.547 1.625-.531.735-1.406 1.125 1.094.391 1.625 1.172.531.766.531 1.813 0 1.719-1.25 2.75-1.234 1.015-3.297 1.015-1.906 0-3.125-1-1.219-1.015-1.219-2.671h2.547q0 .718.532 1.171.546.454 1.328.454.906 0 1.422-.47.515-.484.515-1.28 0-1.907-2.11-1.907h-1.343v-2zm8.188 10.735l-1.329-.688.313-.578q.594-1.063.61-2.125v-1.969h2.14l-.016 1.75q0 .985-.484 1.969-.484 1-1.234 1.64zm3.609-9.5l.734-6.5h7.172v2.125h-5.094l-.312 2.75q.906-.485 1.922-.485 1.828 0 2.86 1.14 1.046 1.126 1.046 3.157 0 1.25-.531 2.235-.516.968-1.5 1.515-.969.531-2.297.531-1.156 0-2.156-.468-.985-.47-1.563-1.313-.578-.86-.61-1.953h2.517q.078.797.546 1.25.485.438 1.266.438.86 0 1.328-.61.469-.625.469-1.765 0-1.079-.547-1.657-.531-.594-1.516-.594-.906 0-1.468.485l-.25.219-2.016-.5zm18.234 1q0 2.656-1.109 4.062-1.094 1.406-3.203 1.406-2.094 0-3.203-1.375-1.11-1.375-1.14-3.953v-2.36q0-2.687 1.108-4.062 1.125-1.39 3.22-1.39 2.093 0 3.187 1.375 1.11 1.375 1.14 3.953v2.344zm-2.546-2.578q0-1.594-.438-2.313-.422-.734-1.344-.734-.906 0-1.328.703-.422.687-.453 2.156v3.11q0 1.562.422 2.328.437.75 1.375.75.922 0 1.328-.72.422-.734.438-2.234v-3.046zm3.89-2.47q0-1.171.766-1.905.765-.735 2.015-.735t2.016.735q.766.718.766 1.953v.64q0 1.188-.766 1.906-.766.72-2 .72-1.25 0-2.031-.72-.766-.734-.766-1.968v-.625zm1.688.688q0 .531.296.86.313.312.797.312.5 0 .782-.328.296-.328.296-.875v-.656q0-.516-.296-.844-.282-.328-.782-.328-.484 0-.796.328-.297.313-.297.89v.641zm4.437 6.516q0-1.188.766-1.906.781-.735 2.015-.735 1.25 0 2.016.719t.766 1.984v.625q0 1.172-.766 1.907-.75.718-2 .718-1.266 0-2.031-.718-.766-.735-.766-1.938v-.656zm1.688.687q0 .485.312.829.313.343.797.343 1.063 0 1.063-1.187v-.672q0-.531-.297-.844-.297-.328-.797-.328-.485 0-.781.328-.297.313-.297.875v.656zm-4.516 1.5l-1.234-.671 6.234-10 1.25.671-6.25 10z"/><path stroke="#b4a7d6" stroke-width="3" stroke-linejoin="round" stroke-linecap="round" d="M436.547 275.5H434v-9.797l-3.031.953v-2.078l5.297-1.89h.28V275.5zm12.437-5.297q0 2.656-1.109 4.063-1.094 1.406-3.203 1.406-2.094 0-3.203-1.375-1.11-1.375-1.14-3.953v-2.36q0-2.687 1.108-4.062 1.125-1.39 3.22-1.39 2.093 0 3.187 1.374 1.11 1.375 1.14 3.953v2.344zm-2.546-2.578q0-1.594-.438-2.313-.422-.734-1.344-.734-.906 0-1.328.703-.422.688-.453 2.156v3.11q0 1.562.422 2.328.437.75 1.375.75.922 0 1.328-.719.422-.734.438-2.234v-3.047zm12.546 2.578q0 2.656-1.109 4.063-1.094 1.406-3.203 1.406-2.094 0-3.203-1.375-1.11-1.375-1.14-3.953v-2.36q0-2.687 1.108-4.062 1.125-1.39 3.22-1.39 2.093 0 3.187 1.374 1.11 1.375 1.14 3.953v2.344zm-2.546-2.578q0-1.594-.438-2.313-.422-.734-1.344-.734-.906 0-1.328.703-.422.688-.453 2.156v3.11q0 1.562.422 2.328.437.75 1.375.75.922 0 1.328-.719.422-.734.438-2.234v-3.047zm4.703 11.078l-1.329-.687.313-.579q.594-1.062.61-2.125v-1.968h2.14l-.016 1.75q0 .984-.484 1.969-.484 1-1.234 1.64zm11.843-8.5q0 2.656-1.109 4.063-1.094 1.406-3.203 1.406-2.094 0-3.203-1.375-1.11-1.375-1.14-3.953v-2.36q0-2.687 1.108-4.062 1.125-1.39 3.22-1.39 2.093 0 3.187 1.374 1.11 1.375 1.14 3.953v2.344zm-2.546-2.578q0-1.594-.438-2.313-.422-.734-1.344-.734-.906 0-1.328.703-.422.688-.453 2.156v3.11q0 1.562.422 2.328.437.75 1.375.75.922 0 1.328-.719.422-.734.438-2.234v-3.047zm12.546 2.578q0 2.656-1.109 4.063-1.094 1.406-3.203 1.406-2.094 0-3.203-1.375-1.11-1.375-1.14-3.953v-2.36q0-2.687 1.108-4.062 1.125-1.39 3.22-1.39 2.093 0 3.187 1.374 1.11 1.375 1.14 3.953v2.344zm-2.546-2.578q0-1.594-.438-2.313-.422-.734-1.344-.734-.906 0-1.328.703-.422.688-.453 2.156v3.11q0 1.562.422 2.328.437.75 1.375.75.922 0 1.328-.719.422-.734.438-2.234v-3.047zm3.89-2.469q0-1.172.766-1.906.765-.734 2.015-.734t2.016.734q.766.719.766 1.953v.64q0 1.188-.766 1.907-.766.719-2 .719-1.25 0-2.031-.719-.766-.734-.766-1.969v-.625zm1.688.688q0 .531.296.86.313.312.797.312.5 0 .782-.329.296-.328.296-.875v-.656q0-.515-.296-.844-.282-.328-.782-.328-.484 0-.796.329-.297.312-.297.89v.64zm4.437 6.515q0-1.187.766-1.906.781-.734 2.015-.734 1.25 0 2.016.719.766.718.766 1.984v.625q0 1.172-.766 1.906-.75.719-2 .719-1.266 0-2.031-.719-.766-.734-.766-1.937v-.657zm1.688.688q0 .484.312.828.313.344.797.344 1.063 0 1.063-1.188v-.672q0-.53-.297-.843-.297-.329-.797-.329-.485 0-.781.329-.297.312-.297.875v.656zm-4.516 1.5l-1.234-.672 6.234-10 1.25.672-6.25 10z"/><path fill="#fff" d="M436.547 275.5H434v-9.797l-3.031.953v-2.078l5.297-1.89h.28V275.5zm12.437-5.297q0 2.656-1.109 4.063-1.094 1.406-3.203 1.406-2.094 0-3.203-1.375-1.11-1.375-1.14-3.953v-2.36q0-2.687 1.108-4.062 1.125-1.39 3.22-1.39 2.093 0 3.187 1.374 1.11 1.375 1.14 3.953v2.344zm-2.546-2.578q0-1.594-.438-2.313-.422-.734-1.344-.734-.906 0-1.328.703-.422.688-.453 2.156v3.11q0 1.562.422 2.328.437.75 1.375.75.922 0 1.328-.719.422-.734.438-2.234v-3.047zm12.546 2.578q0 2.656-1.109 4.063-1.094 1.406-3.203 1.406-2.094 0-3.203-1.375-1.11-1.375-1.14-3.953v-2.36q0-2.687 1.108-4.062 1.125-1.39 3.22-1.39 2.093 0 3.187 1.374 1.11 1.375 1.14 3.953v2.344zm-2.546-2.578q0-1.594-.438-2.313-.422-.734-1.344-.734-.906 0-1.328.703-.422.688-.453 2.156v3.11q0 1.562.422 2.328.437.75 1.375.75.922 0 1.328-.719.422-.734.438-2.234v-3.047zm4.703 11.078l-1.329-.687.313-.579q.594-1.062.61-2.125v-1.968h2.14l-.016 1.75q0 .984-.484 1.969-.484 1-1.234 1.64zm11.843-8.5q0 2.656-1.109 4.063-1.094 1.406-3.203 1.406-2.094 0-3.203-1.375-1.11-1.375-1.14-3.953v-2.36q0-2.687 1.108-4.062 1.125-1.39 3.22-1.39 2.093 0 3.187 1.374 1.11 1.375 1.14 3.953v2.344zm-2.546-2.578q0-1.594-.438-2.313-.422-.734-1.344-.734-.906 0-1.328.703-.422.688-.453 2.156v3.11q0 1.562.422 2.328.437.75 1.375.75.922 0 1.328-.719.422-.734.438-2.234v-3.047zm12.546 2.578q0 2.656-1.109 4.063-1.094 1.406-3.203 1.406-2.094 0-3.203-1.375-1.11-1.375-1.14-3.953v-2.36q0-2.687 1.108-4.062 1.125-1.39 3.22-1.39 2.093 0 3.187 1.374 1.11 1.375 1.14 3.953v2.344zm-2.546-2.578q0-1.594-.438-2.313-.422-.734-1.344-.734-.906 0-1.328.703-.422.688-.453 2.156v3.11q0 1.562.422 2.328.437.75 1.375.75.922 0 1.328-.719.422-.734.438-2.234v-3.047zm3.89-2.469q0-1.172.766-1.906.765-.734 2.015-.734t2.016.734q.766.719.766 1.953v.64q0 1.188-.766 1.907-.766.719-2 .719-1.25 0-2.031-.719-.766-.734-.766-1.969v-.625zm1.688.688q0 .531.296.86.313.312.797.312.5 0 .782-.329.296-.328.296-.875v-.656q0-.515-.296-.844-.282-.328-.782-.328-.484 0-.796.329-.297.312-.297.89v.64zm4.437 6.515q0-1.187.766-1.906.781-.734 2.015-.734 1.25 0 2.016.719.766.718.766 1.984v.625q0 1.172-.766 1.906-.75.719-2 .719-1.266 0-2.031-.719-.766-.734-.766-1.937v-.657zm1.688.688q0 .484.312.828.313.344.797.344 1.063 0 1.063-1.188v-.672q0-.53-.297-.843-.297-.329-.797-.329-.485 0-.781.329-.297.312-.297.875v.656zm-4.516 1.5l-1.234-.672 6.234-10 1.25.672-6.25 10z"/><path fill="#314c59" d="M514.063 546.303h7.375v8.297h-2.204v-6.531h-2.968v6.531h-2.203v-8.297zm14.89 5.656l2.188.36q-.422 1.203-1.328 1.844-.907.625-2.282.625-2.156 0-3.203-1.422-.812-1.125-.812-2.86 0-2.062 1.078-3.218 1.078-1.172 2.718-1.172 1.86 0 2.922 1.218 1.078 1.22 1.032 3.75h-5.5q.015.97.515 1.516.516.547 1.282.547.515 0 .859-.281.36-.282.531-.907zm.125-2.218q-.015-.953-.484-1.453-.469-.5-1.14-.5-.72 0-1.188.53-.47.516-.47 1.423h3.282zm4.016-3.438h2.047v1.219q.39-.625 1.062-1.016.688-.39 1.516-.39 1.453 0 2.453 1.14 1.015 1.125 1.015 3.14 0 2.079-1.015 3.235-1.016 1.157-2.469 1.157-.687 0-1.25-.266-.547-.281-1.172-.953v4.187h-2.187v-11.453zm2.172 4q0 1.406.547 2.078.562.657 1.359.657.765 0 1.265-.61.516-.61.516-2.015 0-1.297-.531-1.922-.516-.641-1.297-.641-.797 0-1.328.625-.531.61-.531 1.828zm7.828-4h2.11v5.203l3.374-5.203h2.156v8.297h-2.109v-5.313l-3.422 5.313h-2.11v-8.297zm9.547 4.031q0-1.093.53-2.109.548-1.031 1.532-1.563 1-.546 2.219-.546 1.875 0 3.078 1.218 1.203 1.22 1.203 3.094 0 1.875-1.219 3.125-1.203 1.235-3.047 1.235-1.14 0-2.187-.516-1.031-.516-1.578-1.516-.531-1-.531-2.422zm2.25.11q0 1.234.578 1.89.593.657 1.453.657.86 0 1.437-.657.594-.656.594-1.906 0-1.219-.594-1.875-.578-.656-1.437-.656-.86 0-1.453.656-.578.656-.578 1.89zm15.125 4.156h-6.282v2.188h-1.797v-3.985h.907q.562-.625.922-1.953.375-1.328.453-4.547h6.687v6.5h.89v3.985h-1.78V554.6zm-1.282-1.797l.016-4.703h-2.656q-.14 3.438-1.094 4.703h3.734z"/><path fill="#000" d="M31.65 337.203v-2.078l11.266 6.078v2.078l-11.266-6.078zm2.906 8.625q-.765 0-1.453-.328-.703-.344-1.078-1.031-.375-.703-.375-1.64 0-1.376.812-2.173.797-.812 2.094-.812 1.313 0 2.125.812.797.797.797 2.172 0 .938-.375 1.64-.375.688-1.078 1.032-.703.328-1.469.328zm.016-2.484q.75 0 1.078-.235.125-.078.125-.28 0-.204-.125-.282-.328-.219-1.078-.219t-1.078.219q-.125.078-.125.281t.125.281q.328.235 1.078.235zm5.406-4.75q-.766 0-1.453-.328-.703-.329-1.078-1.032-.39-.703-.39-1.625 0-1.375.796-2.187.797-.813 2.125-.813 1.328 0 2.125.813.797.812.797 2.187 0 .922-.39 1.625-.376.704-1.063 1.032-.703.328-1.469.328zm.016-2.485q.75 0 1.078-.218.11-.079.11-.282 0-.203-.126-.28-.312-.235-1.062-.235t-1.078.234q-.125.078-.125.281 0 .204.125.282.328.218 1.078.218zm1.75-11.562h2.39q.485 0 .657-.078.187-.078.265-.235.078-.171.078-.64h.266v3.64h-.266q0-.421-.234-.625-.156-.14-.813-.14h-6.75q-.671 0-.859.156-.187.156-.219.61h-.25v-2.688h.844q-.5-.328-.719-.672-.312-.5-.312-1.094 0-.703.453-1.281.437-.578 1.219-.875.781-.297 1.672-.297.984 0 1.78.313.798.296 1.22.89.421.594.421 1.313 0 .531-.234.984-.172.344-.61.719zm-.688 0q.844-.578.844-1.25 0-.375-.39-.61-.579-.359-2.188-.359-1.656 0-2.266.39-.406.266-.406.704 0 .687 1 1.125h3.406zm-5.234-7.531q0-.844.437-1.547.422-.719 1.22-1.094.78-.375 1.733-.375 1.36 0 2.266.688 1.11.828 1.11 2.312 0 1.438-1 2.219-1.016.781-2.36.781-1.375 0-2.39-.797-1.016-.797-1.016-2.187zm.484-.032q0 .344.266.594.25.25 1.031.328.781.078 2.156.078.735 0 1.375-.093.485-.079.735-.313.25-.25.25-.562 0-.313-.172-.516-.235-.266-.64-.36-.657-.124-2.626-.124-1.172 0-1.594.125-.437.125-.64.375-.14.187-.14.468zm4.453-9.171l.157-.22q.843.454 1.265 1.126.406.672.406 1.437 0 1.281-.953 2.047-.968.766-2.328.766-1.297 0-2.297-.703-1.187-.844-1.187-2.313 0-1 .5-1.578.5-.578 1.11-.578.39 0 .624.234.235.235.235.61 0 .406-.266.671-.281.266-.953.329-.438.03-.61.187-.171.172-.171.375 0 .328.359.563.516.359 1.61.359.906 0 1.734-.281.812-.297 1.218-.797.297-.375.297-.89 0-.329-.156-.626-.156-.312-.594-.719zm1.641-2.079h-.25q0-.406-.203-.562-.219-.156-.86-.156h-4.656v.64q0 .672.25.938.235.25 1 .406v.25H36.01v-6.375h1.672v.25q-.687.125-.969.375-.28.234-.28.953v.656h4.655q.657 0 .86-.156.187-.156.203-.562h.25v3.343zm-.938-9.234q1.032 1.172 1.032 2.094 0 .547-.36.922-.359.359-.906.359-.734 0-1.312-.625-.579-.64-1.563-2.75h-.64q-.72 0-.907.078-.187.078-.328.297-.14.219-.14.5 0 .438.203.719.109.187.28.187.141 0 .36-.187.297-.266.563-.266.328 0 .578.25.234.25.234.656 0 .422-.265.72-.266.28-.61.28-.484 0-.937-.375-.453-.39-.688-1.093-.234-.704-.234-1.454 0-.906.39-1.437.375-.531.829-.688.28-.093 1.312-.093h2.484q.438 0 .563-.031.11-.032.172-.094.047-.078.047-.172 0-.172-.266-.36l.172-.203q.5.344.734.72.235.358.235.812 0 .546-.25.859-.266.313-.782.375zm-.5 0h-2.14q.484.828 1.031 1.234.375.266.75.266.313 0 .547-.234.187-.172.187-.47 0-.343-.375-.796zm-1.89-3.844v-3.547h2.578q1.36 0 2.14.579.797.578 1.5 2.156l-1.703.922q-.468-1.016-.78-1.25-.298-.25-.407-.266v1.406h-3.328zm-3.062-9.64v-3.25h.25q.015.359.202.484.188.125.813.125h1.578q0-.766-.25-1.047-.25-.281-.953-.531-1-.375-1.375-.735-.375-.375-.375-1.015 0-.547.312-.953.297-.406.797-.406.375 0 .657.25.265.234.265.609 0 .765-.797.781-.547 0-.547.235 0 .359.938.703.766.296.969.406.187.11.422.375.14-.688.375-1 .234-.313 1.062-.828l.969-.61q.781-.468.828-1h.25v2.47l-3.11 1.89v.406h1.782q.594 0 .828-.14.219-.141.25-.47h.25v3.25h-.25q-.016-.327-.172-.515-.172-.203-.844-.203H37.37q-.64 0-.875.156t-.235.563h-.25zm-.188-11q0-.844.437-1.547.422-.719 1.22-1.094.78-.375 1.733-.375 1.36 0 2.266.688 1.11.828 1.11 2.312 0 1.438-1 2.219-1.016.781-2.36.781-1.375 0-2.39-.797-1.016-.797-1.016-2.187zm.484-.032q0 .344.266.594.25.25 1.031.328.781.078 2.156.078.735 0 1.375-.093.485-.079.735-.313.25-.25.25-.562 0-.313-.172-.516-.235-.266-.64-.36-.657-.124-2.626-.124-1.172 0-1.594.125-.437.125-.64.375-.14.187-.14.468zm-.484-4.234v.25l2.031.094v-.25q-1.484-.547-1.484-1.64 0-.423.297-.735.296-.328.75-.406.453-.094 1.437-.094v1.453h.469v-1.453q1.094 0 1.64.11.532.108.813.421.266.313.266.86 0 .812-.875 1.734l.125.219q.703-.563 1-1.063.296-.5.296-1.25 0-1.469-.968-2.25-.969-.797-2.407-.797-1.5 0-2.437.86-.953.843-.953 2 0 .453.172 1.078.14.421.14.53 0 .267-.312.329zm9.578-8.438h-.266q0-.421-.187-.562-.172-.14-.922-.14h-1.984q.546.515.546 1.093 0 1.047-.968 1.64-.969.594-2.407.594-1.468 0-2.421-.625-.97-.64-.97-1.609 0-.64.563-1.094h-1.922q-.5 0-.765.094-.281.094-.313.61h-.25v-2.61h3.25q-.562-.453-.562-1.078 0-.938.937-1.594.922-.672 2.453-.672 1.547 0 2.47.657.905.656.905 1.593 0 .563-.546 1.094h1.984q.656 0 .875-.125.234-.125.234-.578h.266v3.313zm-3.922-.703h-4.531q-.313.172-.313.454 0 .968 2.735.968 2.468 0 2.468-.937 0-.266-.359-.485zm-4.531-1.906h4.531q.36-.203.36-.5 0-.922-2.626-.922-2.578 0-2.578.985 0 .296.313.437zm8.453-6.39h-.266q0-.422-.187-.563-.172-.14-.922-.14h-1.984q.546.515.546 1.093 0 1.047-.968 1.64-.969.595-2.407.595-1.468 0-2.421-.625-.97-.641-.97-1.61 0-.64.563-1.094h-1.922q-.5 0-.765.094-.281.094-.313.61h-.25v-2.61h3.25q-.562-.453-.562-1.078 0-.938.937-1.594.922-.672 2.453-.672 1.547 0 2.47.657.905.656.905 1.593 0 .563-.546 1.094h1.984q.656 0 .875-.125.234-.125.234-.578h.266v3.313zm-3.922-.704h-4.531q-.313.172-.313.453 0 .97 2.735.97 2.468 0 2.468-.938 0-.266-.359-.485zm-4.531-1.906h4.531q.36-.203.36-.5 0-.922-2.626-.922-2.578 0-2.578.985 0 .297.313.437zm5.453-7.531h-.25q0-.61-.922-.61h-3.125l3.125 1.829q.89-.016.922-.625h.25v3.25h-.25q0-.391-.219-.547-.219-.172-.765-.172h-3.954q-.953 0-.953.719h-.25v-3.25h.25q.016.359.203.5.188.125.75.125h3.125l-3.171-1.828q-.516 0-.704.14-.203.14-.203.469h-.25v-3.25h.25q.016.36.188.547.172.172.687.172h4.063q.562 0 .765-.157.188-.156.188-.562h.25v3.25zm-.25-11.25h1.937v.25q-.796.078-1.25.562-.437.485-.437 1.75v4.532h-.25q0-.407-.219-.563-.219-.156-.86-.156h-3.796q-.688 0-.844.172-.156.172-.172.547h-.25v-3.25h.25q.016.343.172.484.156.14.781.14h3.75q.672 0 .844-.14.172-.14.172-.625v-.36q0-.437-.156-.562-.172-.14-.828-.14h-3.719q-.64 0-.828.125-.188.125-.188.484h-.25v-3.25h.25q.016.406.22.562.202.157.733.157h3.875q.641 0 .844-.141.203-.14.219-.578zm.25-4.75h-.25q0-.61-.922-.61h-3.125l3.125 1.829q.89-.016.922-.625h.25v3.25h-.25q0-.391-.219-.547-.219-.172-.765-.172h-3.954q-.953 0-.953.719h-.25v-3.25h.25q.016.359.203.5.188.125.75.125h3.125l-3.171-1.828q-.516 0-.704.14-.203.14-.203.469h-.25v-3.25h.25q.016.36.188.547.172.172.687.172h4.063q.562 0 .765-.157.188-.156.188-.562h.25v3.25zm-3.422-9.563v3.516q1.266-.063 2-.688.578-.468.578-1.125 0-.406-.234-.734-.235-.344-.828-.734l.156-.235q1.062.532 1.5 1.157.437.625.437 1.453 0 1.422-1.093 2.156-.875.578-2.188.578-1.594 0-2.531-.86-.953-.859-.953-2.03 0-.97.797-1.672.797-.72 2.36-.782zm-.469 1.688q-1.093 0-1.5.125-.406.11-.625.36-.125.155-.125.39 0 .36.344.578.61.406 1.672.406h.234v-1.86zm3.891-3.281h-.25q0-.391-.203-.547-.203-.172-.766-.172H37.26q-.609 0-.797.172-.203.156-.203.547h-.25v-3.25h.25q.016.343.188.484.156.14.734.14h1.688v-1.827h-1.69q-.469 0-.687.109-.235.094-.235.5h-.25v-3.25h.25q0 .406.203.562.188.157.641.157h4.078q.594 0 .781-.157.172-.156.188-.562h.25v3.25h-.25q-.016-.344-.156-.469-.157-.14-.766-.14h-1.922v1.828h1.875q.61 0 .797-.141.172-.14.172-.484h.25v3.25zm0-9.282h-.25q0-.406-.203-.562-.219-.156-.86-.156h-4.656v.64q0 .672.25.938.235.25 1 .406v.25H36.01v-6.375h1.672v.25q-.687.125-.969.375-.28.234-.28.953v.656h4.655q.657 0 .86-.156.187-.156.203-.562h.25v3.343z"/><path fill="#314c59" d="M67.9 458.366q0-1.532.313-2.453.312-.938.921-1.438.625-.5 1.563-.5.687 0 1.203.281.531.282.875.813.344.515.531 1.265.188.75.188 2.032 0 1.515-.313 2.437-.297.922-.922 1.438-.609.5-1.562.5-1.234 0-1.953-.891-.844-1.063-.844-3.484zm1.078 0q0 2.109.5 2.812.5.703 1.219.703.734 0 1.219-.703.5-.703.5-2.812 0-2.125-.5-2.813-.485-.703-1.235-.703-.718 0-1.156.61-.547.78-.547 2.906zm6.485 4.234v-1.203h1.203v1.203q0 .656-.235 1.063-.234.421-.734.64l-.297-.453q.328-.14.484-.438.157-.28.188-.812h-.61zm2.437-4.234q0-1.532.313-2.453.312-.938.921-1.438.625-.5 1.563-.5.687 0 1.203.281.531.282.875.813.344.515.531 1.265.188.75.188 2.032 0 1.515-.313 2.437-.297.922-.922 1.438-.609.5-1.562.5-1.234 0-1.953-.891-.844-1.063-.844-3.484zm1.078 0q0 2.109.5 2.812.5.703 1.219.703.734 0 1.219-.703.5-.703.5-2.812 0-2.125-.5-2.813-.485-.703-1.235-.703-.718 0-1.156.61-.547.78-.547 2.906zm5.922 0q0-1.532.313-2.453.312-.938.921-1.438.625-.5 1.563-.5.687 0 1.203.281.531.282.875.813.344.515.531 1.265.188.75.188 2.032 0 1.515-.313 2.437-.297.922-.922 1.438-.609.5-1.562.5-1.234 0-1.953-.891-.844-1.063-.844-3.484zm1.078 0q0 2.109.5 2.812.5.703 1.219.703.734 0 1.219-.703.5-.703.5-2.812 0-2.125-.5-2.813-.485-.703-1.235-.703-.718 0-1.156.61-.547.78-.547 2.906zM67.9 352.816q0-1.532.313-2.453.312-.938.921-1.438.625-.5 1.563-.5.687 0 1.203.281.531.281.875.813.344.515.531 1.265.188.75.188 2.032 0 1.515-.313 2.437-.297.922-.922 1.438-.609.5-1.562.5-1.234 0-1.953-.891-.844-1.063-.844-3.484zm1.078 0q0 2.109.5 2.812.5.703 1.219.703.734 0 1.219-.703.5-.703.5-2.812 0-2.125-.5-2.813-.485-.703-1.235-.703-.718 0-1.156.61-.547.78-.547 2.906zm6.485 4.234v-1.203h1.203v1.203q0 .656-.235 1.063-.234.421-.734.64l-.297-.453q.328-.14.484-.438.157-.28.188-.812h-.61zm7.984-1.016v1.016h-5.688q0-.375.125-.734.22-.578.688-1.141.484-.563 1.39-1.297 1.407-1.156 1.891-1.828.5-.672.5-1.266 0-.625-.453-1.046-.453-.438-1.172-.438-.765 0-1.219.453-.453.453-.468 1.266l-1.078-.11q.109-1.218.828-1.843.734-.641 1.968-.641 1.235 0 1.954.688.718.687.718 1.703 0 .515-.218 1.015-.204.485-.704 1.047-.484.547-1.609 1.5-.953.797-1.234 1.094-.266.281-.438.562h4.219zM84.9 354.8l1.11-.094q.124.813.562 1.219.453.406 1.094.406.75 0 1.28-.578.532-.578.532-1.515 0-.907-.515-1.422-.5-.532-1.329-.532-.5 0-.921.235-.407.234-.641.594l-.984-.125.828-4.407h4.28v1H86.76l-.453 2.313q.766-.547 1.61-.547 1.125 0 1.89.781.782.781.782 2.016 0 1.156-.672 2.015-.828 1.032-2.25 1.032-1.172 0-1.922-.657-.735-.656-.844-1.734zm-17-107.534q0-1.532.313-2.453.312-.938.921-1.438.625-.5 1.563-.5.687 0 1.203.281.531.281.875.813.344.515.531 1.265.188.75.188 2.032 0 1.515-.313 2.437-.297.922-.922 1.438-.609.5-1.562.5-1.234 0-1.953-.891-.844-1.063-.844-3.484zm1.078 0q0 2.109.5 2.812.5.703 1.219.703.734 0 1.219-.703.5-.703.5-2.812 0-2.125-.5-2.813-.485-.703-1.235-.703-.718 0-1.156.61-.547.78-.547 2.906zm6.485 4.234v-1.203h1.203v1.203q0 .656-.235 1.063-.234.421-.734.64l-.297-.453q.328-.14.484-.438.157-.28.188-.812h-.61zm2.437-2.25l1.11-.094q.124.813.562 1.219.453.406 1.094.406.75 0 1.28-.578.532-.578.532-1.516 0-.906-.515-1.421-.5-.532-1.329-.532-.5 0-.921.235-.407.234-.641.594l-.984-.125.828-4.407h4.28v1H79.76l-.453 2.313q.766-.547 1.61-.547 1.125 0 1.89.781.782.781.782 2.016 0 1.156-.672 2.015-.828 1.032-2.25 1.032-1.172 0-1.922-.657-.735-.656-.844-1.734zm7-1.984q0-1.532.313-2.453.312-.938.921-1.438.625-.5 1.563-.5.687 0 1.203.281.531.281.875.813.344.515.531 1.265.188.75.188 2.032 0 1.515-.313 2.437-.297.922-.922 1.438-.609.5-1.562.5-1.234 0-1.953-.891-.844-1.063-.844-3.484zm1.078 0q0 2.109.5 2.812.5.703 1.219.703.734 0 1.219-.703.5-.703.5-2.812 0-2.125-.5-2.813-.485-.703-1.235-.703-.718 0-1.156.61-.547.78-.547 2.906zM67.9 141.716q0-1.532.313-2.454.312-.937.921-1.437.625-.5 1.563-.5.687 0 1.203.281.531.281.875.813.344.515.531 1.265.188.75.188 2.032 0 1.515-.313 2.437-.297.922-.922 1.438-.609.5-1.562.5-1.234 0-1.953-.891-.844-1.063-.844-3.484zm1.078 0q0 2.109.5 2.812.5.703 1.219.703.734 0 1.219-.703.5-.703.5-2.812 0-2.125-.5-2.813-.485-.703-1.235-.703-.718 0-1.156.61-.547.78-.547 2.906zm6.485 4.234v-1.203h1.203v1.203q0 .656-.235 1.063-.234.421-.734.64l-.297-.453q.328-.14.484-.438.157-.28.188-.812h-.61zm2.5-7.469v-1.015h5.562v.828q-.813.875-1.625 2.328-.797 1.437-1.234 2.969-.328 1.078-.407 2.359h-1.093q.015-1.016.39-2.453.39-1.438 1.094-2.766.719-1.328 1.531-2.25h-4.218zM84.9 143.7l1.11-.094q.124.813.562 1.219.453.406 1.094.406.75 0 1.28-.578.532-.578.532-1.516 0-.906-.515-1.421-.5-.532-1.329-.532-.5 0-.921.235-.407.234-.641.593l-.984-.125.828-4.406h4.28v1H86.76l-.453 2.313q.766-.547 1.61-.547 1.125 0 1.89.781.782.781.782 2.016 0 1.156-.672 2.015-.828 1.032-2.25 1.032-1.172 0-1.922-.657-.735-.656-.844-1.734zM71.869 40.4h-1.047v-6.719q-.39.36-1.016.735-.61.359-1.093.53v-1.015q.875-.422 1.53-1 .673-.593.954-1.156h.672V40.4zm3.594 0v-1.203h1.203V40.4q0 .656-.235 1.063-.234.421-.734.64l-.297-.453q.328-.14.484-.438.157-.28.188-.812h-.61zm2.437-4.234q0-1.532.313-2.453.312-.938.921-1.438.625-.5 1.563-.5.687 0 1.203.281.531.282.875.813.344.515.531 1.265.188.75.188 2.032 0 1.515-.313 2.437-.297.922-.922 1.438-.609.5-1.562.5-1.234 0-1.953-.891-.844-1.063-.844-3.484zm1.078 0q0 2.109.5 2.812.5.703 1.219.703.734 0 1.219-.703.5-.703.5-2.812 0-2.125-.5-2.813-.485-.703-1.235-.703-.718 0-1.156.61-.547.78-.547 2.906zm5.922 0q0-1.532.313-2.453.312-.938.921-1.438.625-.5 1.563-.5.687 0 1.203.281.531.282.875.813.344.515.531 1.265.188.75.188 2.032 0 1.515-.313 2.437-.297.922-.922 1.438-.609.5-1.562.5-1.234 0-1.953-.891-.844-1.063-.844-3.484zm1.078 0q0 2.109.5 2.812.5.703 1.219.703.734 0 1.219-.703.5-.703.5-2.812 0-2.125-.5-2.813-.485-.703-1.235-.703-.718 0-1.156.61-.547.78-.547 2.906zm83.186 466.106h1.578v7.11l4.39-7.11h1.704v9.328h-1.578v-7.078l-4.391 7.078h-1.703v-9.328zm10.016 0h1.578v3.89h1.921q.204-2 1.25-3.046 1.047-1.063 2.704-1.063 1.421 0 2.234.578.813.563 1.344 1.563.531 1 .531 2.703 0 2.422-1.094 3.672t-2.984 1.25q-1.75 0-2.813-1.156-1.047-1.172-1.172-3.188h-1.921v4.125h-1.579v-9.328zm7.546 1.125q-1.172 0-1.812.89-.64.891-.64 2.5 0 1.922.64 2.829.656.89 1.75.89 1.078 0 1.766-.828.687-.828.687-2.672 0-1.812-.594-2.703-.594-.906-1.797-.906zm7.203-1.125h7.36v9.328h-1.578v-8.031h-4.188v4.656q0 1.625-.11 2.14-.109.516-.593.907-.469.39-1.36.39-.546 0-1.265-.078v-1.312h.688q.484 0 .687-.094.219-.11.281-.328.078-.219.078-1.438v-6.14zm10.204 0h1.593v3.64h2q1.953 0 3.016.766 1.063.75 1.063 2.094 0 1.172-.891 2-.875.828-2.828.828h-3.953v-9.328zm1.593 8.031h1.657q1.5 0 2.14-.375.64-.375.64-1.156 0-.594-.484-1.063-.468-.484-2.093-.484h-1.86v3.078zm101.941.141q-.875.75-1.703 1.062-.813.313-1.734.313-1.547 0-2.375-.75-.813-.766-.813-1.938 0-.672.313-1.234.312-.578.812-.922.5-.344 1.14-.516.47-.125 1.407-.234 1.906-.234 2.812-.547.016-.328.016-.422 0-.953-.453-1.36-.61-.53-1.797-.53-1.125 0-1.656.39-.531.39-.781 1.39l-1.547-.218q.218-1 .687-1.61.485-.609 1.39-.937.923-.328 2.141-.328 1.188 0 1.938.281.75.282 1.094.72.36.421.5 1.062.078.406.078 1.468v2.11q0 2.203.094 2.797.109.578.406 1.109h-1.656q-.25-.5-.313-1.156zm-.14-3.531q-.86.359-2.579.593-.968.14-1.375.328-.406.172-.625.516-.218.328-.218.75 0 .625.468 1.047.485.422 1.407.422.921 0 1.625-.39.718-.407 1.046-1.095.25-.546.25-1.593v-.578zm4.062-4.641h3.64q1.344 0 2 .219.657.218 1.126.828.468.594.468 1.422 0 .672-.28 1.172-.267.5-.829.828.656.218 1.094.828.437.594.437 1.422-.094 1.328-.953 1.968-.86.641-2.5.641h-4.203v-9.328zm1.578 3.922h1.688q1 0 1.375-.094.39-.11.687-.438.297-.328.297-.765 0-.734-.531-1.031-.516-.297-1.782-.297h-1.734v2.625zm0 4.11h2.078q1.344 0 1.844-.313t.531-1.078q0-.454-.297-.829-.28-.39-.75-.484-.468-.11-1.5-.11h-1.906v2.813zm8.422-8.032h5.36v1.297h-3.782v8.031h-1.578v-9.328zm6.906 12.922l-.172-1.485q.516.141.907.141.53 0 .843-.172.313-.172.516-.5.156-.234.484-1.172.047-.14.141-.39l-3.531-9.344h1.703l1.937 5.406q.375 1.016.672 2.156.281-1.093.656-2.125l2-5.437h1.579l-3.547 9.484q-.578 1.547-.89 2.125-.423.782-.97 1.14-.547.36-1.297.36-.468 0-1.03-.187zm15.172-7.016l1.547.203q-.25 1.61-1.297 2.532-1.047.906-2.578.906-1.922 0-3.094-1.25-1.156-1.266-1.156-3.594 0-1.516.5-2.64.5-1.141 1.516-1.704 1.03-.578 2.234-.578 1.531 0 2.484.781.97.766 1.25 2.172l-1.547.235q-.218-.938-.78-1.407-.548-.484-1.345-.484-1.187 0-1.937.86-.75.859-.75 2.718 0 1.875.719 2.735.718.843 1.89.843.922 0 1.547-.562.625-.578.797-1.766zm2.047-5.906h7.594v1.297h-3.016v8.031h-1.562v-8.031h-3.016v-1.297zm59.863 5.906l1.546.203q-.25 1.61-1.296 2.532-1.047.906-2.579.906-1.921 0-3.093-1.25-1.157-1.266-1.157-3.594 0-1.516.5-2.64.5-1.141 1.516-1.704 1.031-.578 2.234-.578 1.532 0 2.485.781.969.766 1.25 2.172l-1.547.235q-.219-.938-.781-1.407-.547-.484-1.344-.484-1.188 0-1.938.86-.75.859-.75 2.718 0 1.875.72 2.735.718.843 1.89.843.922 0 1.547-.562.625-.578.797-1.766zm9.296.422l1.641.203q-.39 1.422-1.437 2.219-1.047.797-2.672.797-2.047 0-3.25-1.266-1.203-1.265-1.203-3.547 0-2.343 1.203-3.64 1.218-1.313 3.156-1.313 1.875 0 3.062 1.281 1.188 1.266 1.188 3.579 0 .14-.016.421h-6.953q.078 1.547.86 2.36.796.812 1.953.812.875 0 1.484-.453.625-.453.984-1.453zm-5.203-2.563h5.219q-.11-1.171-.594-1.765-.765-.922-1.968-.922-1.079 0-1.829.734-.734.735-.828 1.954zm8.828-3.765h1.579v3.875h4.375v-3.875h1.593v9.328h-1.593v-4.14h-4.375v4.14h-1.579v-9.328zm9.125 0h7.594v1.297h-3.015v8.031h-1.563v-8.031h-3.016v-1.297zm16.204 0v9.328h-1.563v-3.64h-.922q-.828 0-1.25.218-.406.219-1.187 1.375l-1.375 2.047h-1.97l1.72-2.516q.78-1.156 1.547-1.296-1.344-.188-2-.97-.657-.796-.657-1.827 0-1.22.844-1.97.86-.75 2.484-.75h4.329zm-1.563 1.297h-2.25q-1.422 0-1.828.453-.406.437-.406 1.016 0 .843.593 1.234.61.39 2.141.39h1.75v-3.093zm11.063-5.156l1.39.015q-.094.938-.422 1.313-.312.359-.828.468-.5.11-1.969.11-1.968 0-2.687.375-.703.375-1.016 1.203-.312.828-.343 2.14.593-.89 1.39-1.328.797-.437 1.813-.437 1.828 0 3.03 1.266 1.204 1.25 1.204 3.406 0 1.625-.61 2.672-.593 1.047-1.437 1.625-.828.578-2.25.578-1.672 0-2.594-.766-.921-.765-1.421-1.953-.485-1.188-.485-4.125 0-3.703 1.25-4.984 1.266-1.282 3.86-1.282 1.625 0 1.843-.046.219-.063.282-.25zm-.079 8.484q0-1.453-.703-2.39-.687-.938-1.937-.938-1.313 0-2.031.984-.704.985-.704 2.64 0 1.626.782 2.485.797.86 1.937.86 1.188 0 1.922-1t.734-2.641zm3.235 8.281v-12.906h1.437v1.203q.516-.703 1.157-1.063.64-.359 1.546-.359 1.204 0 2.11.625.922.61 1.39 1.735.47 1.109.47 2.453 0 1.422-.516 2.578-.516 1.14-1.5 1.765-.985.61-2.063.61-.781 0-1.422-.328-.625-.344-1.031-.86v4.547h-1.578zm1.437-8.187q0 1.797.719 2.656.734.86 1.766.86 1.062 0 1.812-.891t.75-2.766q0-1.781-.734-2.672-.735-.89-1.75-.89-1.016 0-1.797.953-.766.937-.766 2.75zm8.532-4.72h1.593v3.642h2q1.953 0 3.016.765 1.062.75 1.062 2.094 0 1.172-.89 2-.875.828-2.828.828h-3.953v-9.328zm1.593 8.032h1.657q1.5 0 2.14-.375.64-.375.64-1.156 0-.594-.484-1.063-.468-.484-2.093-.484h-1.86v3.078zm13.594 1.297v-12.89h2.563l3.046 9.124q.422 1.282.61 1.907.219-.703.687-2.063l3.094-8.969h2.281V511.6h-1.64v-10.781l-3.735 10.781h-1.547l-3.718-10.969V511.6h-1.641zm18.734 0l-5-12.89h1.844l3.36 9.359q.39 1.125.671 2.11.297-1.048.688-2.11l3.484-9.36h1.735l-5.032 12.891h-1.75zm7.313 0v-12.89h4.86q1.28 0 1.952.124.954.157 1.594.61.64.437 1.031 1.25.391.797.391 1.75 0 1.64-1.047 2.781-1.047 1.14-3.765 1.14h-3.313v5.235h-1.703zm1.703-6.766h3.328q1.656 0 2.344-.609.703-.61.703-1.734 0-.813-.406-1.375-.406-.578-1.078-.766-.438-.11-1.594-.11h-3.297v4.594zm15.61 6.766h-1.579v-10.078q-.578.547-1.5 1.094-.922.53-1.672.812v-1.531q1.329-.625 2.329-1.516 1-.89 1.406-1.718h1.015V511.6zm44.549 0v-12.89h2.563l3.047 9.124q.422 1.282.61 1.907.218-.703.687-2.063l3.093-8.969h2.282V511.6h-1.64v-10.781l-3.735 10.781h-1.547l-3.719-10.969V511.6h-1.64zm18.735 0l-5-12.89h1.844l3.359 9.359q.39 1.125.672 2.11.297-1.048.687-2.11l3.485-9.36h1.734l-5.031 12.891h-1.75zm7.312 0v-12.89h4.86q1.281 0 1.953.124.953.157 1.594.61.64.437 1.03 1.25.391.797.391 1.75 0 1.64-1.046 2.781-1.047 1.14-3.766 1.14h-3.313v5.235h-1.703zm1.703-6.766h3.329q1.656 0 2.343-.609.703-.61.703-1.734 0-.813-.406-1.375-.406-.578-1.078-.766-.437-.11-1.594-.11h-3.297v4.594zm15.61 6.766h-1.578v-10.078q-.578.547-1.5 1.094-.922.53-1.672.812v-1.531q1.328-.625 2.328-1.516 1-.89 1.406-1.718h1.016V511.6zm3.297.219l3.734-13.328h1.266l-3.719 13.328h-1.281zm14.062-1.735v1.516h-8.515q-.016-.578.187-1.094.328-.875 1.031-1.718.72-.844 2.078-1.954 2.094-1.718 2.829-2.718.75-1.016.75-1.907 0-.953-.672-1.593-.672-.641-1.75-.641-1.157 0-1.844.688-.672.687-.688 1.89l-1.625-.172q.172-1.812 1.25-2.765 1.094-.953 2.938-.953t2.922 1.03q1.094 1.032 1.094 2.548 0 .765-.329 1.515-.312.75-1.046 1.578-.735.829-2.438 2.266-1.422 1.203-1.828 1.625-.406.422-.656.86h6.312zm73.191 1.516v-12.89h2.562l3.047 9.124q.422 1.282.61 1.907.218-.703.687-2.063l3.094-8.969h2.281V511.6h-1.64v-10.781l-3.735 10.781h-1.547l-3.718-10.969V511.6h-1.641zm18.734 0l-5-12.89h1.844l3.36 9.359q.39 1.125.671 2.11.297-1.048.688-2.11l3.484-9.36h1.735l-5.032 12.891h-1.75zm7.313 0v-12.89h4.86q1.28 0 1.952.124.953.157 1.594.61.64.437 1.031 1.25.39.797.39 1.75 0 1.64-1.046 2.781-1.047 1.14-3.766 1.14h-3.312v5.235h-1.703zm1.703-6.766h3.328q1.656 0 2.344-.609.703-.61.703-1.734 0-.813-.406-1.375-.407-.578-1.078-.766-.438-.11-1.594-.11h-3.297v4.594zm22.969 5.25v1.516h-8.516q-.016-.578.188-1.094.328-.875 1.03-1.718.72-.844 2.079-1.954 2.094-1.718 2.828-2.718.75-1.016.75-1.907 0-.953-.672-1.593-.672-.641-1.75-.641-1.156 0-1.844.688-.671.687-.687 1.89l-1.625-.172q.172-1.812 1.25-2.765 1.094-.953 2.937-.953 1.844 0 2.922 1.03 1.094 1.032 1.094 2.548 0 .765-.328 1.515-.313.75-1.047 1.578-.734.829-2.437 2.266-1.422 1.203-1.829 1.625-.406.422-.656.86h6.313zm.937 1.735l3.735-13.328h1.265l-3.719 13.328h-1.28zm11.703-.219h-1.578v-10.078q-.578.547-1.5 1.094-.922.53-1.672.812v-1.531q1.328-.625 2.328-1.516 1-.89 1.407-1.718h1.015V511.6zm73.05 0v-12.89h2.563l3.047 9.124q.422 1.282.61 1.907.218-.703.687-2.063l3.093-8.969h2.282V511.6h-1.641v-10.781l-3.734 10.781h-1.547l-3.719-10.969V511.6h-1.64zm18.735 0l-5-12.89h1.844l3.359 9.359q.39 1.125.672 2.11.297-1.048.687-2.11l3.485-9.36h1.734l-5.031 12.891h-1.75zm7.312 0v-12.89h4.86q1.28 0 1.953.124.953.157 1.594.61.64.437 1.03 1.25.391.797.391 1.75 0 1.64-1.046 2.781-1.047 1.14-3.766 1.14h-3.313v5.235h-1.703zm1.703-6.766h3.329q1.656 0 2.343-.609.703-.61.703-1.734 0-.813-.406-1.375-.406-.578-1.078-.766-.438-.11-1.594-.11h-3.297v4.594zm22.97 5.25v1.516h-8.516q-.016-.578.187-1.094.328-.875 1.031-1.718.719-.844 2.078-1.954 2.094-1.718 2.829-2.718.75-1.016.75-1.907 0-.953-.672-1.593-.672-.641-1.75-.641-1.157 0-1.844.688-.672.687-.688 1.89l-1.625-.172q.172-1.812 1.25-2.765 1.094-.953 2.938-.953t2.922 1.03q1.094 1.032 1.094 2.548 0 .765-.329 1.515-.312.75-1.046 1.578-.735.829-2.438 2.266-1.422 1.203-1.828 1.625-.406.422-.656.86h6.312zm.937 1.735l3.734-13.328h1.266l-3.72 13.328h-1.28zm14.062-1.735v1.516h-8.515q-.016-.578.187-1.094.328-.875 1.031-1.718.719-.844 2.078-1.954 2.094-1.718 2.829-2.718.75-1.016.75-1.907 0-.953-.672-1.593-.672-.641-1.75-.641-1.157 0-1.844.688-.672.687-.688 1.89l-1.625-.172q.172-1.812 1.25-2.765 1.094-.953 2.938-.953t2.922 1.03q1.094 1.032 1.094 2.548 0 .765-.329 1.515-.312.75-1.046 1.578-.735.829-2.438 2.266-1.422 1.203-1.828 1.625-.406.422-.656.86h6.312z"/></svg>